<svg id="svg" version="1.1" xmlns="http://www.w3.org/2000/svg" xmlns:xlink="http://www.w3.org/1999/xlink" width="400" height="400" viewBox="0, 0, 400,400"><g id="svg"><path id="path0" d="M252.575 16.720 C 252.149 17.116,251.485 17.561,251.100 17.708 C 250.715 17.855,250.400 18.251,250.400 18.587 C 250.400 18.924,250.220 19.200,250.000 19.200 C 249.780 19.200,249.600 19.560,249.600 20.000 C 249.600 20.440,249.420 20.800,249.200 20.800 C 248.974 20.800,248.800 21.933,248.800 23.400 C 248.800 24.867,248.974 26.000,249.200 26.000 C 249.420 26.000,249.600 26.276,249.600 26.613 C 249.600 27.409,252.191 30.000,252.987 30.000 C 253.324 30.000,253.600 30.180,253.600 30.400 C 253.600 30.635,254.992 30.800,256.976 30.800 C 258.833 30.800,260.464 30.980,260.600 31.200 C 260.737 31.421,262.537 31.600,264.624 31.600 C 266.875 31.600,268.400 31.762,268.400 32.000 C 268.400 32.241,270.059 32.400,272.576 32.400 C 274.929 32.400,276.861 32.575,277.000 32.800 C 277.137 33.021,278.937 33.200,281.024 33.200 C 283.275 33.200,284.800 33.362,284.800 33.600 C 284.800 33.820,285.700 34.000,286.800 34.000 C 287.900 34.000,288.800 34.180,288.800 34.400 C 288.800 34.620,288.440 34.800,288.000 34.800 C 287.560 34.800,287.200 34.980,287.200 35.200 C 287.200 35.420,286.922 35.600,286.583 35.600 C 286.244 35.600,285.580 35.960,285.108 36.400 C 284.636 36.840,284.013 37.200,283.725 37.200 C 283.436 37.200,283.200 37.380,283.200 37.600 C 283.200 37.820,282.840 38.000,282.400 38.000 C 281.960 38.000,281.600 38.180,281.600 38.400 C 281.600 38.620,281.280 38.800,280.888 38.800 C 280.497 38.800,279.917 39.160,279.600 39.600 C 279.283 40.040,278.703 40.400,278.312 40.400 C 277.920 40.400,277.600 40.543,277.600 40.718 C 277.600 40.893,276.790 41.370,275.800 41.778 C 274.810 42.187,274.000 42.673,274.000 42.860 C 274.000 43.047,273.655 43.200,273.233 43.200 C 272.812 43.200,272.407 43.335,272.333 43.500 C 272.166 43.876,270.036 45.175,269.100 45.471 C 268.715 45.593,268.400 45.852,268.400 46.047 C 268.400 46.241,268.040 46.400,267.600 46.400 C 267.160 46.400,266.800 46.580,266.800 46.800 C 266.800 47.020,266.564 47.200,266.275 47.200 C 265.987 47.200,265.364 47.560,264.892 48.000 C 264.420 48.440,263.756 48.800,263.417 48.800 C 263.078 48.800,262.800 48.980,262.800 49.200 C 262.800 49.420,262.440 49.600,262.000 49.600 C 261.560 49.600,261.200 49.780,261.200 50.000 C 261.200 50.220,261.012 50.400,260.783 50.400 C 260.554 50.400,259.980 50.760,259.508 51.200 C 259.036 51.640,258.413 52.000,258.125 52.000 C 257.836 52.000,257.600 52.180,257.600 52.400 C 257.600 52.620,257.240 52.800,256.800 52.800 C 256.360 52.800,256.000 52.980,256.000 53.200 C 256.000 53.420,255.680 53.600,255.288 53.600 C 254.897 53.600,254.317 53.960,254.000 54.400 C 253.683 54.840,253.103 55.200,252.712 55.200 C 252.320 55.200,252.000 55.380,252.000 55.600 C 252.000 55.820,251.640 56.000,251.200 56.000 C 250.760 56.000,250.400 56.180,250.400 56.400 C 250.400 56.620,250.130 56.800,249.800 56.800 C 249.470 56.800,249.200 56.980,249.200 57.200 C 249.200 57.420,248.930 57.600,248.600 57.600 C 248.270 57.600,248.000 57.780,248.000 58.000 C 248.000 58.220,247.685 58.413,247.300 58.429 C 246.915 58.445,246.060 58.797,245.400 59.211 C 244.740 59.626,243.570 60.278,242.800 60.661 C 242.030 61.045,241.310 61.458,241.200 61.580 C 241.090 61.702,240.505 62.056,239.900 62.368 C 239.295 62.680,238.800 63.085,238.800 63.268 C 238.800 63.450,238.440 63.600,238.000 63.600 C 237.560 63.600,237.200 63.780,237.200 64.000 C 237.200 64.220,236.840 64.400,236.400 64.400 C 235.960 64.400,235.600 64.580,235.600 64.800 C 235.600 65.020,235.364 65.200,235.075 65.200 C 234.787 65.200,234.164 65.560,233.692 66.000 C 233.220 66.440,232.556 66.800,232.217 66.800 C 231.878 66.800,231.600 66.959,231.600 67.153 C 231.600 67.348,231.285 67.607,230.900 67.729 C 230.213 67.946,227.994 69.205,227.600 69.601 C 227.490 69.711,226.860 70.070,226.200 70.398 C 225.540 70.726,224.709 71.311,224.353 71.697 C 223.997 72.084,223.412 72.400,223.053 72.400 C 222.694 72.400,222.400 72.580,222.400 72.800 C 222.400 73.020,222.040 73.200,221.600 73.200 C 221.160 73.200,220.800 73.380,220.800 73.600 C 220.800 73.820,220.455 74.000,220.033 74.000 C 219.612 74.000,219.207 74.150,219.133 74.334 C 219.060 74.518,217.650 75.366,216.000 76.219 C 214.350 77.073,212.910 77.882,212.800 78.017 C 212.690 78.153,212.015 78.519,211.300 78.830 C 210.585 79.141,210.000 79.531,210.000 79.698 C 210.000 79.864,209.764 80.000,209.475 80.000 C 209.187 80.000,208.564 80.360,208.092 80.800 C 207.620 81.240,206.956 81.600,206.617 81.600 C 206.278 81.600,206.000 81.780,206.000 82.000 C 206.000 82.220,205.680 82.400,205.288 82.400 C 204.897 82.400,204.317 82.760,204.000 83.200 C 203.683 83.640,203.103 84.000,202.712 84.000 C 202.320 84.000,202.000 84.180,202.000 84.400 C 202.000 84.620,201.640 84.800,201.200 84.800 C 200.760 84.800,200.400 84.980,200.400 85.200 C 200.400 85.420,200.164 85.600,199.875 85.600 C 199.587 85.600,198.964 85.960,198.492 86.400 C 198.020 86.840,197.356 87.200,197.017 87.200 C 196.678 87.200,196.400 87.380,196.400 87.600 C 196.400 87.820,196.122 88.000,195.783 88.000 C 195.444 88.000,194.780 88.360,194.308 88.800 C 193.836 89.240,193.213 89.600,192.925 89.600 C 192.636 89.600,192.400 89.780,192.400 90.000 C 192.400 90.220,192.130 90.400,191.800 90.400 C 191.470 90.400,191.200 90.580,191.200 90.800 C 191.200 91.020,190.917 91.200,190.571 91.200 C 190.226 91.200,189.673 91.470,189.343 91.800 C 189.013 92.130,188.396 92.400,187.971 92.400 C 187.547 92.400,187.197 92.535,187.194 92.700 C 187.190 92.865,186.290 93.440,185.194 93.979 C 184.097 94.517,183.200 95.102,183.200 95.279 C 183.200 95.455,182.840 95.600,182.400 95.600 C 181.960 95.600,181.600 95.759,181.600 95.953 C 181.600 96.148,181.285 96.407,180.900 96.529 C 180.153 96.766,177.933 98.046,177.600 98.432 C 177.490 98.560,176.815 98.919,176.100 99.230 C 175.385 99.541,174.800 99.931,174.800 100.098 C 174.800 100.264,174.564 100.400,174.275 100.400 C 173.987 100.400,173.364 100.760,172.892 101.200 C 172.420 101.640,171.756 102.000,171.417 102.000 C 171.078 102.000,170.800 102.180,170.800 102.400 C 170.800 102.620,170.480 102.800,170.088 102.800 C 169.697 102.800,169.117 103.160,168.800 103.600 C 168.483 104.040,167.903 104.400,167.512 104.400 C 167.120 104.400,166.800 104.580,166.800 104.800 C 166.800 105.020,166.440 105.200,166.000 105.200 C 165.560 105.200,165.200 105.380,165.200 105.600 C 165.200 105.820,164.964 106.000,164.675 106.000 C 164.387 106.000,163.764 106.360,163.292 106.800 C 162.820 107.240,162.156 107.600,161.817 107.600 C 161.478 107.600,161.199 107.735,161.199 107.900 C 161.198 108.065,160.388 108.533,159.399 108.940 C 158.409 109.346,157.600 109.841,157.600 110.040 C 157.600 110.238,157.255 110.400,156.833 110.400 C 156.412 110.400,156.007 110.535,155.933 110.700 C 155.766 111.076,153.636 112.375,152.700 112.671 C 152.315 112.793,152.000 113.052,152.000 113.247 C 152.000 113.441,151.640 113.600,151.200 113.600 C 150.760 113.600,150.400 113.780,150.400 114.000 C 150.400 114.220,150.164 114.400,149.875 114.400 C 149.587 114.400,148.964 114.760,148.492 115.200 C 148.020 115.640,147.356 116.000,147.017 116.000 C 146.678 116.000,146.400 116.180,146.400 116.400 C 146.400 116.620,146.040 116.800,145.600 116.800 C 145.160 116.800,144.800 116.980,144.800 117.200 C 144.800 117.420,144.530 117.600,144.200 117.600 C 143.870 117.600,143.600 117.780,143.600 118.000 C 143.600 118.220,143.330 118.400,143.000 118.400 C 142.670 118.400,142.400 118.580,142.400 118.800 C 142.400 119.020,142.130 119.200,141.800 119.200 C 141.470 119.200,141.200 119.380,141.200 119.600 C 141.200 119.820,140.840 120.000,140.400 120.000 C 139.960 120.000,139.600 120.180,139.600 120.400 C 139.600 120.620,139.364 120.800,139.075 120.800 C 138.787 120.800,138.164 121.160,137.692 121.600 C 137.220 122.040,136.556 122.400,136.217 122.400 C 135.878 122.400,135.600 122.580,135.600 122.800 C 135.600 123.020,135.255 123.200,134.833 123.200 C 134.412 123.200,134.007 123.365,133.933 123.566 C 133.860 123.767,132.630 124.545,131.200 125.295 C 126.992 127.503,125.013 128.587,124.800 128.801 C 124.690 128.911,124.105 129.256,123.500 129.568 C 122.895 129.880,122.400 130.285,122.400 130.468 C 122.400 130.650,122.040 130.800,121.600 130.800 C 121.160 130.800,120.800 130.980,120.800 131.200 C 120.800 131.420,120.522 131.600,120.183 131.600 C 119.844 131.600,119.180 131.960,118.708 132.400 C 118.236 132.840,117.613 133.200,117.325 133.200 C 117.036 133.200,116.800 133.380,116.800 133.600 C 116.800 133.820,116.440 134.000,116.000 134.000 C 115.560 134.000,115.200 134.159,115.200 134.353 C 115.200 134.548,114.885 134.807,114.500 134.929 C 113.813 135.146,111.594 136.405,111.200 136.801 C 111.090 136.911,110.460 137.270,109.800 137.598 C 109.140 137.926,108.309 138.511,107.953 138.897 C 107.597 139.284,107.012 139.600,106.653 139.600 C 106.294 139.600,106.000 139.780,106.000 140.000 C 106.000 140.220,105.640 140.400,105.200 140.400 C 104.760 140.400,104.400 140.580,104.400 140.800 C 104.400 141.020,104.040 141.200,103.600 141.200 C 103.160 141.200,102.800 141.335,102.799 141.500 C 102.799 141.665,101.719 142.326,100.399 142.970 C 99.080 143.613,98.000 144.288,98.000 144.470 C 98.000 144.651,97.640 144.800,97.200 144.800 C 96.760 144.800,96.400 144.936,96.400 145.102 C 96.400 145.269,95.815 145.664,95.100 145.980 C 94.385 146.297,93.451 146.880,93.025 147.278 C 92.598 147.675,92.013 148.000,91.725 148.000 C 91.436 148.000,91.200 148.180,91.200 148.400 C 91.200 148.620,90.840 148.800,90.400 148.800 C 89.960 148.800,89.600 148.980,89.600 149.200 C 89.600 149.420,89.364 149.600,89.075 149.600 C 88.787 149.600,88.164 149.960,87.692 150.400 C 87.220 150.840,86.556 151.200,86.217 151.200 C 85.878 151.200,85.600 151.380,85.600 151.600 C 85.600 151.820,85.240 152.000,84.800 152.000 C 84.360 152.000,84.000 152.180,84.000 152.400 C 84.000 152.620,83.730 152.800,83.400 152.800 C 83.070 152.800,82.800 152.980,82.800 153.200 C 82.800 153.420,82.530 153.600,82.200 153.600 C 81.870 153.600,81.600 153.780,81.600 154.000 C 81.600 154.220,81.255 154.400,80.833 154.400 C 80.412 154.400,80.007 154.535,79.933 154.700 C 79.766 155.076,77.636 156.375,76.700 156.671 C 76.315 156.793,76.000 157.052,76.000 157.247 C 76.000 157.441,75.730 157.600,75.400 157.600 C 75.070 157.600,74.800 157.780,74.800 158.000 C 74.800 158.220,74.453 158.400,74.029 158.400 C 73.604 158.400,72.987 158.670,72.657 159.000 C 72.327 159.330,71.774 159.600,71.429 159.600 C 71.083 159.600,70.797 159.735,70.794 159.900 C 70.790 160.065,69.890 160.640,68.794 161.179 C 67.697 161.717,66.800 162.302,66.800 162.479 C 66.800 162.655,66.440 162.800,66.000 162.800 C 65.560 162.800,65.200 162.959,65.200 163.153 C 65.200 163.348,64.885 163.607,64.500 163.729 C 63.813 163.946,61.594 165.205,61.200 165.601 C 61.090 165.711,60.460 166.071,59.800 166.401 C 59.140 166.730,58.251 167.315,57.825 167.700 C 57.398 168.085,56.813 168.400,56.525 168.400 C 56.236 168.400,56.000 168.580,56.000 168.800 C 56.000 169.020,55.640 169.200,55.200 169.200 C 54.760 169.200,54.400 169.380,54.400 169.600 C 54.400 169.820,54.080 170.000,53.688 170.000 C 53.297 170.000,52.717 170.360,52.400 170.800 C 52.083 171.240,51.503 171.600,51.112 171.600 C 50.720 171.600,50.400 171.780,50.400 172.000 C 50.400 172.220,50.122 172.400,49.782 172.400 C 49.108 172.400,47.692 173.735,46.900 175.117 C 46.299 176.166,46.213 182.400,46.800 182.400 C 47.020 182.400,47.200 182.694,47.200 183.053 C 47.200 183.863,49.161 185.599,50.076 185.600 C 50.448 185.600,50.864 185.780,51.000 186.000 C 51.136 186.220,52.306 186.400,53.600 186.400 C 54.894 186.400,56.064 186.220,56.200 186.000 C 56.336 185.780,56.714 185.600,57.040 185.600 C 57.367 185.600,58.020 185.240,58.492 184.800 C 58.964 184.360,59.587 184.000,59.875 184.000 C 60.164 184.000,60.400 183.820,60.400 183.600 C 60.400 183.380,60.760 183.200,61.200 183.200 C 61.640 183.200,62.000 183.020,62.000 182.800 C 62.000 182.580,62.320 182.400,62.712 182.400 C 63.103 182.400,63.683 182.040,64.000 181.600 C 64.317 181.160,64.897 180.800,65.288 180.800 C 65.680 180.800,66.000 180.620,66.000 180.400 C 66.000 180.180,66.360 180.000,66.800 180.000 C 67.240 180.000,67.600 179.820,67.600 179.600 C 67.600 179.380,67.836 179.200,68.125 179.200 C 68.413 179.200,69.036 178.840,69.508 178.400 C 69.980 177.960,70.644 177.600,70.983 177.600 C 71.322 177.600,71.600 177.454,71.600 177.275 C 71.600 177.096,72.230 176.702,73.000 176.400 C 73.770 176.098,74.400 175.749,74.401 175.625 C 74.401 175.501,75.481 174.874,76.801 174.230 C 78.120 173.587,79.200 172.912,79.200 172.730 C 79.200 172.549,79.560 172.400,80.000 172.400 C 80.440 172.400,80.800 172.220,80.800 172.000 C 80.800 171.780,81.160 171.600,81.600 171.600 C 82.040 171.600,82.400 171.420,82.400 171.200 C 82.400 170.980,82.636 170.800,82.925 170.800 C 83.213 170.800,83.836 170.440,84.308 170.000 C 84.780 169.560,85.429 169.200,85.750 169.200 C 86.071 169.200,86.393 169.065,86.467 168.900 C 86.634 168.524,88.764 167.225,89.700 166.929 C 90.085 166.807,90.400 166.548,90.400 166.353 C 90.400 166.159,90.670 166.000,91.000 166.000 C 91.330 166.000,91.600 165.820,91.600 165.600 C 91.600 165.380,91.960 165.200,92.400 165.200 C 92.840 165.200,93.200 165.020,93.200 164.800 C 93.200 164.580,93.436 164.400,93.725 164.400 C 94.013 164.400,94.636 164.040,95.108 163.600 C 95.580 163.160,96.244 162.800,96.583 162.800 C 96.922 162.800,97.200 162.620,97.200 162.400 C 97.200 162.180,97.520 162.000,97.912 162.000 C 98.303 162.000,98.883 161.640,99.200 161.200 C 99.517 160.760,100.097 160.400,100.488 160.400 C 100.880 160.400,101.200 160.220,101.200 160.000 C 101.200 159.780,101.545 159.600,101.967 159.600 C 102.388 159.600,102.793 159.465,102.867 159.300 C 102.940 159.135,103.720 158.641,104.600 158.202 C 106.894 157.057,110.177 155.052,110.333 154.700 C 110.407 154.535,110.812 154.400,111.233 154.400 C 111.655 154.400,112.000 154.220,112.000 154.000 C 112.000 153.780,112.278 153.600,112.617 153.600 C 112.956 153.600,113.620 153.240,114.092 152.800 C 114.564 152.360,115.187 152.000,115.475 152.000 C 115.764 152.000,116.000 151.820,116.000 151.600 C 116.000 151.380,116.360 151.200,116.800 151.200 C 117.240 151.200,117.600 151.020,117.600 150.800 C 117.600 150.580,117.836 150.400,118.125 150.400 C 118.413 150.400,119.036 150.040,119.508 149.600 C 119.980 149.160,120.644 148.800,120.983 148.800 C 121.322 148.800,121.600 148.664,121.600 148.498 C 121.600 148.331,122.185 147.940,122.900 147.628 C 123.615 147.316,124.491 146.732,124.847 146.330 C 125.203 145.929,125.788 145.600,126.147 145.600 C 126.506 145.600,126.800 145.420,126.800 145.200 C 126.800 144.980,127.160 144.800,127.600 144.800 C 128.040 144.800,128.400 144.620,128.400 144.400 C 128.400 144.180,128.636 144.000,128.925 144.000 C 129.213 144.000,129.836 143.640,130.308 143.200 C 130.780 142.760,131.444 142.400,131.783 142.400 C 132.122 142.400,132.400 142.220,132.400 142.000 C 132.400 141.780,132.747 141.600,133.171 141.600 C 133.596 141.600,134.181 141.375,134.471 141.100 C 134.762 140.825,135.540 140.336,136.200 140.012 C 136.860 139.689,138.152 138.924,139.072 138.312 C 139.992 137.701,140.937 137.200,141.172 137.200 C 141.407 137.200,141.600 137.020,141.600 136.800 C 141.600 136.580,141.960 136.400,142.400 136.400 C 142.840 136.400,143.200 136.220,143.200 136.000 C 143.200 135.780,143.436 135.600,143.725 135.600 C 144.013 135.600,144.636 135.240,145.108 134.800 C 145.580 134.360,146.244 134.000,146.583 134.000 C 146.922 134.000,147.200 133.820,147.200 133.600 C 147.200 133.380,147.478 133.200,147.817 133.200 C 148.156 133.200,148.820 132.840,149.292 132.400 C 149.764 131.960,150.387 131.600,150.675 131.600 C 150.964 131.600,151.200 131.420,151.200 131.200 C 151.200 130.980,151.560 130.800,152.000 130.800 C 152.440 130.800,152.800 130.641,152.800 130.447 C 152.800 130.252,153.115 129.993,153.500 129.871 C 154.187 129.654,156.406 128.395,156.800 127.999 C 156.910 127.889,157.540 127.530,158.200 127.202 C 158.860 126.874,159.670 126.318,160.000 125.967 C 160.330 125.615,161.129 125.197,161.776 125.037 C 162.422 124.878,163.440 124.399,164.037 123.973 C 164.635 123.548,165.321 123.200,165.562 123.200 C 165.803 123.200,166.000 123.020,166.000 122.800 C 166.000 122.580,166.360 122.400,166.800 122.400 C 167.240 122.400,167.600 122.241,167.600 122.047 C 167.600 121.852,167.915 121.593,168.300 121.471 C 168.987 121.254,171.206 119.995,171.600 119.599 C 171.710 119.489,172.340 119.130,173.000 118.802 C 173.660 118.474,174.491 117.889,174.847 117.503 C 175.203 117.116,175.788 116.800,176.147 116.800 C 176.506 116.800,176.800 116.620,176.800 116.400 C 176.800 116.180,177.160 116.000,177.600 116.000 C 178.040 116.000,178.400 115.820,178.400 115.600 C 178.400 115.380,178.720 115.200,179.112 115.200 C 179.503 115.200,180.083 114.840,180.400 114.400 C 180.717 113.960,181.297 113.600,181.688 113.600 C 182.080 113.600,182.400 113.420,182.400 113.200 C 182.400 112.980,182.760 112.800,183.200 112.800 C 183.640 112.800,184.000 112.620,184.000 112.400 C 184.000 112.180,184.236 112.000,184.525 112.000 C 184.813 112.000,185.436 111.640,185.908 111.200 C 186.380 110.760,187.044 110.400,187.383 110.400 C 187.722 110.400,188.002 110.265,188.005 110.100 C 188.007 109.935,188.772 109.443,189.705 109.006 C 190.637 108.569,191.490 108.115,191.600 107.996 C 191.710 107.878,192.655 107.335,193.700 106.791 C 194.745 106.247,195.600 105.666,195.600 105.501 C 195.600 105.335,195.960 105.200,196.400 105.200 C 196.840 105.200,197.200 105.020,197.200 104.800 C 197.200 104.580,197.560 104.400,198.000 104.400 C 198.440 104.400,198.800 104.220,198.800 104.000 C 198.800 103.780,199.036 103.600,199.325 103.600 C 199.613 103.600,200.236 103.240,200.708 102.800 C 201.180 102.360,201.844 102.000,202.183 102.000 C 202.522 102.000,202.800 101.841,202.800 101.647 C 202.800 101.452,203.115 101.193,203.500 101.071 C 204.187 100.854,206.406 99.595,206.800 99.199 C 206.910 99.089,207.540 98.729,208.200 98.399 C 208.860 98.070,209.749 97.485,210.175 97.100 C 210.602 96.715,211.187 96.400,211.475 96.400 C 211.764 96.400,212.000 96.220,212.000 96.000 C 212.000 95.780,212.360 95.600,212.800 95.600 C 213.240 95.600,213.600 95.420,213.600 95.200 C 213.600 94.980,213.920 94.800,214.312 94.800 C 214.703 94.800,215.283 94.440,215.600 94.000 C 215.917 93.560,216.497 93.200,216.888 93.200 C 217.280 93.200,217.600 93.020,217.600 92.800 C 217.600 92.580,217.945 92.400,218.367 92.400 C 218.788 92.400,219.193 92.265,219.267 92.100 C 219.340 91.935,220.120 91.447,221.000 91.015 C 221.880 90.583,223.352 89.728,224.272 89.115 C 225.192 88.502,226.137 88.000,226.372 88.000 C 226.607 88.000,226.800 87.820,226.800 87.600 C 226.800 87.380,227.160 87.200,227.600 87.200 C 228.040 87.200,228.400 87.020,228.400 86.800 C 228.400 86.580,228.720 86.400,229.112 86.400 C 229.503 86.400,230.083 86.040,230.400 85.600 C 230.717 85.160,231.297 84.800,231.688 84.800 C 232.080 84.800,232.400 84.620,232.400 84.400 C 232.400 84.180,232.760 84.000,233.200 84.000 C 233.640 84.000,234.000 83.820,234.000 83.600 C 234.000 83.380,234.236 83.200,234.525 83.200 C 234.813 83.200,235.436 82.840,235.908 82.400 C 236.380 81.960,237.044 81.600,237.383 81.600 C 237.722 81.600,238.000 81.464,238.000 81.298 C 238.000 81.131,238.585 80.740,239.300 80.428 C 240.015 80.116,240.891 79.532,241.247 79.130 C 241.603 78.729,242.188 78.400,242.547 78.400 C 242.906 78.400,243.200 78.220,243.200 78.000 C 243.200 77.780,243.560 77.600,244.000 77.600 C 244.440 77.600,244.800 77.420,244.800 77.200 C 244.800 76.980,245.036 76.800,245.325 76.800 C 245.613 76.800,246.236 76.440,246.708 76.000 C 247.180 75.560,247.763 75.200,248.003 75.200 C 248.483 75.200,250.882 74.033,251.200 73.644 C 251.310 73.510,252.120 73.026,253.000 72.570 C 255.242 71.407,256.566 70.639,256.800 70.368 C 256.910 70.240,257.585 69.881,258.300 69.570 C 259.015 69.259,259.600 68.869,259.600 68.702 C 259.600 68.536,259.836 68.400,260.125 68.400 C 260.413 68.400,261.036 68.040,261.508 67.600 C 261.980 67.160,262.644 66.800,262.983 66.800 C 263.322 66.800,263.600 66.620,263.600 66.400 C 263.600 66.180,263.878 66.000,264.217 66.000 C 264.556 66.000,265.220 65.640,265.692 65.200 C 266.164 64.760,266.787 64.400,267.075 64.400 C 267.364 64.400,267.600 64.220,267.600 64.000 C 267.600 63.780,267.960 63.600,268.400 63.600 C 268.840 63.600,269.200 63.420,269.200 63.200 C 269.200 62.980,269.436 62.800,269.725 62.800 C 270.013 62.800,270.636 62.440,271.108 62.000 C 271.580 61.560,272.244 61.200,272.583 61.200 C 272.922 61.200,273.200 61.064,273.200 60.898 C 273.200 60.731,273.785 60.341,274.500 60.030 C 275.215 59.719,275.890 59.349,276.000 59.209 C 276.110 59.068,277.550 58.264,279.200 57.421 C 280.850 56.579,282.260 55.734,282.333 55.545 C 282.407 55.355,282.812 55.200,283.233 55.200 C 283.655 55.200,284.000 55.020,284.000 54.800 C 284.000 54.580,284.236 54.400,284.525 54.400 C 284.813 54.400,285.436 54.040,285.908 53.600 C 286.380 53.160,287.044 52.800,287.383 52.800 C 287.722 52.800,288.000 52.664,288.000 52.498 C 288.000 52.331,288.585 51.940,289.300 51.628 C 290.015 51.316,290.891 50.732,291.247 50.330 C 291.603 49.929,292.188 49.600,292.547 49.600 C 292.906 49.600,293.200 49.420,293.200 49.200 C 293.200 48.980,293.560 48.800,294.000 48.800 C 294.440 48.800,294.800 48.641,294.800 48.447 C 294.800 48.252,295.186 47.992,295.658 47.869 C 296.301 47.701,296.401 47.759,296.058 48.102 C 295.806 48.354,295.600 48.974,295.600 49.480 C 295.600 49.986,295.420 50.400,295.200 50.400 C 294.980 50.400,294.800 50.760,294.800 51.200 C 294.800 51.640,294.620 52.000,294.400 52.000 C 294.180 52.000,294.000 52.360,294.000 52.800 C 294.000 53.240,293.820 53.600,293.600 53.600 C 293.380 53.600,293.200 53.864,293.200 54.186 C 293.200 54.726,292.401 56.814,291.551 58.495 C 291.358 58.877,291.200 59.462,291.200 59.795 C 291.200 60.128,291.020 60.400,290.800 60.400 C 290.580 60.400,290.400 60.760,290.400 61.200 C 290.400 61.640,290.220 62.000,290.000 62.000 C 289.780 62.000,289.600 62.360,289.600 62.800 C 289.600 63.240,289.420 63.600,289.200 63.600 C 288.980 63.600,288.800 63.960,288.800 64.400 C 288.800 64.840,288.620 65.200,288.400 65.200 C 288.180 65.200,288.000 65.639,288.000 66.176 C 288.000 66.713,287.820 67.264,287.600 67.400 C 287.380 67.536,287.200 67.997,287.200 68.424 C 287.200 68.851,287.020 69.200,286.800 69.200 C 286.580 69.200,286.400 69.560,286.400 70.000 C 286.400 70.440,286.220 70.800,286.000 70.800 C 285.780 70.800,285.600 71.160,285.600 71.600 C 285.600 72.040,285.420 72.400,285.200 72.400 C 284.980 72.400,284.800 72.760,284.800 73.200 C 284.800 73.640,284.620 74.000,284.400 74.000 C 284.180 74.000,284.000 74.450,284.000 75.000 C 284.000 75.550,283.820 76.000,283.600 76.000 C 283.380 76.000,283.200 76.360,283.200 76.800 C 283.200 77.240,283.020 77.600,282.800 77.600 C 282.565 77.600,282.400 79.006,282.400 81.019 L 282.400 84.438 284.156 86.219 C 285.122 87.199,286.191 88.000,286.532 88.000 C 286.874 88.000,287.264 88.180,287.400 88.400 C 287.704 88.891,291.600 88.938,291.600 88.450 C 291.600 88.258,292.097 88.001,292.705 87.879 C 294.420 87.536,296.400 85.353,296.400 83.805 C 296.400 83.472,296.580 83.200,296.800 83.200 C 297.020 83.200,297.200 82.840,297.200 82.400 C 297.200 81.960,297.380 81.600,297.600 81.600 C 297.820 81.600,298.000 81.240,298.000 80.800 C 298.000 80.360,298.180 80.000,298.400 80.000 C 298.620 80.000,298.800 79.640,298.800 79.200 C 298.800 78.760,298.980 78.400,299.200 78.400 C 299.420 78.400,299.600 78.040,299.600 77.600 C 299.600 77.160,299.780 76.800,300.000 76.800 C 300.220 76.800,300.400 76.350,300.400 75.800 C 300.400 75.250,300.580 74.800,300.800 74.800 C 301.020 74.800,301.200 74.440,301.200 74.000 C 301.200 73.560,301.380 73.200,301.600 73.200 C 301.820 73.200,302.000 72.840,302.000 72.400 C 302.000 71.960,302.180 71.600,302.400 71.600 C 302.620 71.600,302.800 71.364,302.800 71.075 C 302.800 70.786,303.160 69.805,303.600 68.894 C 304.040 67.984,304.400 66.960,304.400 66.619 C 304.400 66.279,304.580 66.000,304.800 66.000 C 305.020 66.000,305.200 65.640,305.200 65.200 C 305.200 64.760,305.380 64.400,305.600 64.400 C 305.820 64.400,306.000 64.040,306.000 63.600 C 306.000 63.160,306.136 62.800,306.302 62.800 C 306.468 62.800,306.811 62.215,307.063 61.500 C 308.381 57.761,309.029 56.187,309.300 56.067 C 309.465 55.993,309.600 55.588,309.600 55.167 C 309.600 54.745,309.780 54.400,310.000 54.400 C 310.220 54.400,310.400 54.040,310.400 53.600 C 310.400 53.160,310.580 52.800,310.800 52.800 C 311.020 52.800,311.200 52.440,311.200 52.000 C 311.200 51.560,311.380 51.200,311.600 51.200 C 311.820 51.200,312.000 50.761,312.000 50.224 C 312.000 49.687,312.180 49.136,312.400 49.000 C 312.620 48.864,312.800 48.403,312.800 47.976 C 312.800 47.549,312.980 47.200,313.200 47.200 C 313.420 47.200,313.600 46.840,313.600 46.400 C 313.600 45.960,313.780 45.600,314.000 45.600 C 314.220 45.600,314.400 45.240,314.400 44.800 C 314.400 44.360,314.580 44.000,314.800 44.000 C 315.020 44.000,315.200 43.640,315.200 43.200 C 315.200 42.760,315.380 42.400,315.600 42.400 C 315.820 42.400,316.000 41.950,316.000 41.400 C 316.000 40.850,316.180 40.400,316.400 40.400 C 316.620 40.400,316.800 40.040,316.800 39.600 C 316.800 39.160,316.980 38.800,317.200 38.800 C 317.420 38.800,317.600 38.440,317.600 38.000 C 317.600 37.560,317.780 37.200,318.000 37.200 C 318.220 37.200,318.400 36.840,318.400 36.400 C 318.400 35.960,318.580 35.600,318.800 35.600 C 319.020 35.600,319.200 35.251,319.200 34.824 C 319.200 34.397,319.380 33.936,319.600 33.800 C 319.820 33.664,320.000 33.113,320.000 32.576 C 320.000 32.039,320.180 31.600,320.400 31.600 C 320.976 31.600,320.895 26.954,320.300 25.920 C 319.491 24.514,317.277 22.400,316.613 22.400 C 316.276 22.400,316.000 22.220,316.000 22.000 C 316.000 21.771,314.800 21.600,313.200 21.600 C 311.600 21.600,310.400 21.429,310.400 21.200 C 310.400 20.961,308.867 20.800,306.600 20.800 C 304.333 20.800,302.800 20.639,302.800 20.400 C 302.800 20.160,301.208 20.000,298.824 20.000 C 296.604 20.000,294.738 19.823,294.600 19.600 C 294.462 19.377,292.596 19.200,290.376 19.200 C 287.992 19.200,286.400 19.040,286.400 18.800 C 286.400 18.560,284.800 18.400,282.400 18.400 C 280.000 18.400,278.400 18.240,278.400 18.000 C 278.400 17.760,276.800 17.600,274.400 17.600 C 272.000 17.600,270.400 17.440,270.400 17.200 C 270.400 16.959,268.733 16.800,266.200 16.800 C 263.667 16.800,262.000 16.641,262.000 16.400 C 262.000 15.613,253.455 15.904,252.575 16.720 M313.067 109.067 C 312.920 109.213,312.800 167.803,312.800 239.267 L 312.800 369.200 303.400 369.200 L 294.000 369.200 294.000 266.000 L 294.000 162.800 253.400 162.800 L 212.800 162.800 212.800 266.000 L 212.800 369.200 203.400 369.200 L 194.000 369.200 194.000 292.600 L 194.000 216.000 153.400 216.000 L 112.800 216.000 112.800 292.600 L 112.800 369.200 103.400 369.200 L 94.000 369.200 94.000 322.600 L 94.000 276.000 53.400 276.000 L 12.800 276.000 12.800 322.600 L 12.800 369.200 8.600 369.200 C 6.067 369.200,4.400 369.359,4.400 369.600 C 4.400 369.820,4.128 370.000,3.795 370.000 C 3.105 370.000,1.723 370.729,0.815 371.571 C -1.285 373.522,0.518 383.200,2.982 383.200 C 3.322 383.200,3.600 383.380,3.600 383.600 C 3.600 383.866,69.333 384.000,200.000 384.000 C 330.667 384.000,396.400 383.866,396.400 383.600 C 396.400 383.380,396.678 383.200,397.018 383.200 C 399.482 383.200,401.285 373.522,399.185 371.571 C 398.277 370.729,396.895 370.000,396.205 370.000 C 395.872 370.000,395.600 369.820,395.600 369.600 C 395.600 369.380,395.240 369.200,394.800 369.200 C 394.002 369.200,394.000 368.933,394.000 239.243 C 394.000 121.108,393.942 109.264,393.367 109.043 C 392.500 108.710,313.400 108.734,313.067 109.067 M379.200 246.600 L 379.200 369.200 353.400 369.200 L 327.600 369.200 327.600 246.600 L 327.600 124.000 353.400 124.000 L 379.200 124.000 379.200 246.600 M279.200 273.400 L 279.200 369.200 253.400 369.200 L 227.600 369.200 227.600 273.400 L 227.600 177.600 253.400 177.600 L 279.200 177.600 279.200 273.400 M179.200 300.000 L 179.200 369.200 153.400 369.200 L 127.600 369.200 127.600 300.000 L 127.600 230.800 153.400 230.800 L 179.200 230.800 179.200 300.000 M79.200 330.200 L 79.200 369.200 53.400 369.200 L 27.600 369.200 27.600 330.200 L 27.600 291.200 53.400 291.200 L 79.200 291.200 79.200 330.200 " stroke="none" fill="#04d4e4" fill-rule="evenodd"></path><path id="path1" d="" stroke="none" fill="#08d4e4" fill-rule="evenodd"></path><path id="path2" d="" stroke="none" fill="#08d4e4" fill-rule="evenodd"></path><path id="path3" d="" stroke="none" fill="#08d4e4" fill-rule="evenodd"></path><path id="path4" d="" stroke="none" fill="#08d4e4" fill-rule="evenodd"></path></g></svg>