<?xml version="1.0" standalone="no"?>
<!DOCTYPE svg PUBLIC "-//W3C//DTD SVG 20010904//EN"
 "http://www.w3.org/TR/2001/REC-SVG-20010904/DTD/svg10.dtd">
<svg version="1.0" xmlns="http://www.w3.org/2000/svg"
 width="512.000000pt" height="512.000000pt" viewBox="0 0 512.000000 512.000000"
 preserveAspectRatio="xMidYMid meet">
<metadata>
Created by potrace 1.16, written by Peter Selinger 2001-2019
</metadata>
<g transform="translate(0.000000,512.000000) scale(0.100000,-0.100000)"
fill="#000000" stroke="none">
<path d="M2500 5098 c-19 -20 -20 -34 -20 -223 0 -189 1 -203 20 -223 15 -15
33 -22 60 -22 27 0 45 7 60 22 19 20 20 34 20 223 0 189 -1 203 -20 223 -28
30 -92 30 -120 0z"/>
<path d="M1153 4550 c-27 -11 -43 -40 -43 -76 0 -22 29 -56 142 -171 132 -133
145 -143 179 -143 45 0 79 36 79 83 0 26 -21 52 -137 169 -142 142 -170 159
-220 138z"/>
<path d="M3895 4551 c-11 -5 -80 -69 -152 -143 -120 -121 -133 -138 -133 -170
0 -45 34 -78 81 -78 32 0 48 14 177 143 121 122 142 148 142 174 0 57 -62 97
-115 74z"/>
<path d="M2316 4474 c-173 -31 -371 -114 -536 -222 -167 -110 -367 -337 -460
-521 -82 -163 -154 -434 -130 -490 20 -50 80 -65 122 -31 21 16 28 36 42 109
86 470 445 855 914 978 134 35 358 43 499 18 261 -47 464 -154 654 -344 213
-213 326 -448 359 -751 23 -209 -23 -455 -122 -655 -60 -119 -143 -231 -272
-363 -118 -120 -130 -136 -130 -169 0 -26 7 -42 28 -59 52 -46 68 -37 222 118
243 247 361 463 420 768 26 138 24 380 -4 516 -122 576 -558 1001 -1126 1099
-112 19 -371 19 -480 -1z"/>
<path d="M2383 4050 c-49 -30 -63 -66 -63 -168 l0 -89 -37 -15 -38 -15 -71 69
c-68 64 -75 68 -118 68 -65 0 -88 -15 -192 -122 -132 -136 -135 -177 -27 -290
l65 -67 -13 -35 -13 -36 -83 0 c-95 0 -139 -14 -171 -55 -20 -26 -22 -39 -22
-182 0 -221 10 -235 175 -243 l99 -5 15 -38 14 -38 -61 -62 c-113 -115 -110
-151 26 -290 105 -107 134 -127 182 -127 44 0 66 14 136 81 l60 60 37 -16 37
-15 0 -85 c0 -98 15 -142 56 -170 26 -18 47 -20 184 -20 137 0 158 2 184 20
41 28 56 72 56 170 l0 85 37 15 37 16 60 -60 c70 -67 92 -81 136 -81 48 0 77
20 182 127 136 139 139 175 26 290 l-61 62 14 38 15 38 99 5 c165 8 175 22
175 243 0 143 -2 156 -22 182 -32 41 -76 55 -171 55 l-83 0 -13 36 -13 36 60
62 c113 114 110 158 -22 294 -104 107 -127 122 -192 122 -43 0 -50 -4 -118
-68 l-71 -69 -37 15 -38 15 0 91 c0 73 -4 97 -20 123 -33 55 -62 63 -222 63
-124 0 -147 -3 -175 -20z m257 -243 c0 -119 8 -137 72 -156 23 -7 71 -27 106
-43 44 -21 71 -28 89 -23 14 3 57 36 95 72 l69 67 54 -54 55 -54 -70 -71 c-77
-77 -86 -105 -54 -167 9 -17 27 -61 40 -97 13 -36 32 -72 41 -78 11 -9 53 -13
120 -13 l103 0 0 -80 0 -80 -99 0 c-115 0 -140 -12 -160 -82 -7 -24 -24 -64
-37 -90 -41 -82 -35 -109 46 -192 l70 -72 -55 -54 -55 -54 -73 72 c-85 84
-102 88 -193 42 -32 -16 -74 -33 -92 -36 -58 -11 -72 -42 -72 -160 l0 -104
-80 0 -80 0 0 104 c0 118 -14 149 -72 160 -18 3 -60 20 -92 36 -91 46 -108 42
-193 -42 l-73 -72 -55 54 -55 54 70 72 c81 83 87 110 46 192 -13 26 -30 66
-37 90 -20 70 -45 82 -160 82 l-99 0 0 80 0 80 103 0 c67 0 109 4 120 13 9 6
28 42 41 78 13 36 31 80 40 97 32 62 23 90 -54 167 l-70 71 55 54 54 54 69
-67 c38 -36 81 -69 95 -72 18 -5 45 2 89 23 35 16 83 36 106 43 64 19 72 37
72 156 l0 103 80 0 80 0 0 -103z"/>
<path d="M2466 3490 c-111 -28 -210 -111 -263 -219 -25 -50 -28 -67 -28 -161
0 -94 3 -111 28 -165 35 -76 105 -148 182 -188 57 -31 65 -32 175 -32 106 0
119 2 170 28 76 39 153 117 187 191 25 55 28 72 28 166 0 94 -3 111 -28 161
-66 136 -187 217 -333 224 -44 3 -96 0 -118 -5z m165 -165 c63 -23 104 -58
133 -117 43 -86 31 -175 -33 -249 -45 -53 -101 -79 -171 -79 -70 0 -126 26
-171 79 -64 74 -76 163 -33 249 53 107 166 155 275 117z"/>
<path d="M584 3178 c-47 -22 -56 -86 -19 -123 24 -25 25 -25 228 -25 200 0
204 0 225 23 30 32 29 81 -3 112 -24 25 -25 25 -217 24 -111 0 -202 -5 -214
-11z"/>
<path d="M4105 3165 c-31 -30 -33 -82 -5 -113 20 -21 28 -22 226 -22 204 0
205 0 229 25 27 26 31 51 14 88 -19 42 -48 47 -250 47 -188 0 -190 0 -214 -25z"/>
<path d="M1201 3014 c-25 -32 -26 -45 -6 -160 50 -285 174 -509 425 -769 198
-205 275 -331 329 -539 16 -62 21 -110 21 -218 l0 -138 -29 0 c-32 0 -71 -39
-71 -71 0 -46 41 -89 85 -89 12 0 15 -17 15 -84 l0 -84 -30 -7 c-35 -8 -70
-48 -70 -80 0 -36 37 -75 71 -75 l29 0 0 -79 c0 -43 5 -93 11 -112 16 -46 55
-97 92 -119 25 -16 33 -31 49 -91 29 -117 93 -208 187 -268 54 -35 104 -40
139 -15 19 13 23 23 20 62 -3 43 -6 48 -60 86 -68 49 -94 80 -119 147 l-19 49
285 0 c248 0 285 -2 285 -15 0 -35 -46 -108 -92 -148 -107 -90 -111 -95 -104
-129 9 -45 33 -68 73 -68 108 0 251 158 283 314 9 46 17 57 55 84 63 44 84 92
92 207 l6 95 28 0 c32 0 69 40 69 75 0 32 -35 72 -70 80 l-30 7 0 84 c0 67 3
84 15 84 44 0 85 43 85 89 0 33 -39 71 -72 71 l-30 0 4 163 c3 160 4 163 44
279 44 124 46 158 11 183 -23 16 -64 19 -92 8 -24 -8 -69 -109 -96 -209 l-22
-84 -436 0 -436 0 -33 107 c-70 223 -147 348 -340 546 -76 78 -162 176 -191
217 -106 150 -185 345 -212 517 -15 99 -32 123 -89 123 -30 0 -43 -6 -59 -26z
m1779 -1734 l0 -90 -425 0 -425 0 0 90 0 90 425 0 425 0 0 -90z m0 -335 l0
-85 -425 0 -425 0 0 85 0 85 425 0 425 0 0 -85z m0 -325 c0 -68 -3 -81 -19
-90 -13 -6 -160 -10 -410 -10 l-390 0 -15 22 c-11 15 -16 45 -16 90 l0 68 425
0 425 0 0 -80z"/>
<path d="M1395 2051 c-11 -5 -80 -69 -152 -143 -112 -113 -133 -140 -133 -165
0 -47 34 -83 79 -83 34 0 47 10 179 143 121 122 142 148 142 174 0 57 -62 97
-115 74z"/>
<path d="M3653 2050 c-27 -11 -43 -40 -43 -77 0 -23 26 -55 143 -171 131 -131
145 -142 179 -142 44 0 78 36 78 83 0 26 -21 52 -137 169 -142 142 -170 159
-220 138z"/>
</g>
</svg>
