<?xml version="1.0" standalone="no"?>
<!DOCTYPE svg PUBLIC "-//W3C//DTD SVG 20010904//EN"
 "http://www.w3.org/TR/2001/REC-SVG-20010904/DTD/svg10.dtd">
<svg version="1.0" xmlns="http://www.w3.org/2000/svg"
 width="512.000000pt" height="512.000000pt" viewBox="0 0 512.000000 512.000000"
 preserveAspectRatio="xMidYMid meet">
<metadata>
Created by potrace 1.16, written by Peter Selinger 2001-2019
</metadata>
<g transform="translate(0.000000,512.000000) scale(0.100000,-0.100000)"
fill="#000000" stroke="none">
<path d="M550 2560 l0 -2560 2010 0 2010 0 0 1943 0 1942 -618 618 -617 617
-1393 0 -1392 0 0 -2560z m2650 1785 l0 -595 595 0 595 0 0 -1785 0 -1785
-1830 0 -1830 0 0 2380 0 2380 1235 0 1235 0 0 -595z m625 25 l440 -440 -443
0 -442 0 0 440 c0 242 1 440 3 440 1 0 200 -198 442 -440z"/>
<path d="M1970 3583 c-8 -3 -98 -73 -199 -154 l-186 -149 -65 65 c-81 81 -119
92 -168 50 -26 -22 -32 -34 -32 -68 0 -39 6 -47 108 -149 153 -153 127 -158
423 80 252 202 261 213 234 279 -18 43 -69 64 -115 46z"/>
<path d="M2209 3317 c-44 -34 -50 -93 -15 -134 l24 -28 709 -3 c520 -2 715 1
736 9 58 24 70 98 25 147 l-21 22 -721 0 c-551 -1 -725 -4 -737 -13z"/>
<path d="M1778 2496 l-193 -154 -71 69 c-75 72 -101 82 -147 57 -34 -18 -46
-40 -47 -82 0 -38 7 -47 108 -148 93 -93 112 -108 141 -108 18 0 42 5 54 12
12 6 122 91 244 190 228 182 229 184 224 248 -3 36 -45 70 -86 70 -29 0 -63
-23 -227 -154z"/>
<path d="M2200 2370 c-45 -45 -35 -114 21 -142 31 -17 87 -18 722 -18 755 0
742 -1 766 59 16 37 8 73 -21 101 -21 20 -32 20 -745 20 -707 0 -723 0 -743
-20z"/>
<path d="M1778 1556 l-193 -154 -71 69 c-62 60 -77 69 -108 69 -52 0 -86 -36
-86 -91 0 -39 5 -47 103 -145 102 -102 134 -122 180 -110 36 9 471 362 484
393 25 58 -19 123 -82 123 -29 0 -63 -23 -227 -154z"/>
<path d="M2222 1445 c-38 -17 -56 -56 -47 -102 12 -66 -26 -63 772 -63 707 0
723 0 743 20 49 49 29 131 -37 149 -25 7 -271 11 -718 11 -564 -1 -686 -3
-713 -15z"/>
</g>
</svg>
