<svg id="svg" version="1.1" xmlns="http://www.w3.org/2000/svg" xmlns:xlink="http://www.w3.org/1999/xlink" width="400" height="400" viewBox="0, 0, 400,400"><g id="svgg"><path id="path0" d="M168.900 0.282 C 168.185 0.375,167.600 0.619,167.600 0.825 C 167.600 1.031,167.240 1.200,166.800 1.200 C 166.360 1.200,166.000 1.380,166.000 1.600 C 166.000 1.820,165.680 2.000,165.288 2.000 C 164.897 2.000,164.317 2.360,164.000 2.800 C 163.683 3.240,163.207 3.600,162.942 3.600 C 162.231 3.600,159.352 6.668,158.790 8.025 C 158.522 8.671,158.145 9.200,157.951 9.200 C 157.758 9.200,157.600 9.470,157.600 9.800 C 157.600 10.130,157.420 10.400,157.200 10.400 C 156.980 10.400,156.800 10.749,156.800 11.176 C 156.800 11.603,156.620 12.064,156.400 12.200 C 156.180 12.336,156.000 12.876,156.000 13.400 C 156.000 13.924,155.820 14.464,155.600 14.600 C 155.341 14.760,155.200 22.671,155.200 37.024 C 155.200 51.541,155.062 59.200,154.800 59.200 C 154.580 59.200,154.400 59.819,154.400 60.576 C 154.400 61.333,154.220 62.064,154.000 62.200 C 153.780 62.336,153.600 62.847,153.600 63.335 C 153.600 63.824,153.240 64.483,152.800 64.800 C 152.360 65.117,152.000 65.562,152.000 65.788 C 151.999 66.447,150.161 68.400,149.542 68.400 C 149.231 68.400,148.717 68.760,148.400 69.200 C 148.083 69.640,147.503 70.000,147.112 70.000 C 146.720 70.000,146.400 70.180,146.400 70.400 C 146.400 70.620,145.961 70.800,145.424 70.800 C 144.887 70.800,144.336 70.980,144.200 71.200 C 143.875 71.726,138.000 71.726,138.000 71.200 C 138.000 70.980,137.460 70.800,136.800 70.800 C 136.140 70.800,135.600 70.650,135.600 70.468 C 135.600 70.285,135.111 69.880,134.513 69.568 C 133.914 69.255,126.804 62.385,118.712 54.300 C 110.620 46.215,103.769 39.600,103.488 39.600 C 103.207 39.600,102.717 39.240,102.400 38.800 C 102.083 38.360,101.503 38.000,101.112 38.000 C 100.720 38.000,100.400 37.820,100.400 37.600 C 100.400 37.380,100.040 37.200,99.600 37.200 C 99.160 37.200,98.800 37.020,98.800 36.800 C 98.800 36.580,98.260 36.400,97.600 36.400 C 96.940 36.400,96.400 36.220,96.400 36.000 C 96.400 35.778,95.333 35.600,94.000 35.600 C 92.667 35.600,91.600 35.422,91.600 35.200 C 91.600 34.980,90.970 34.800,90.200 34.800 C 89.430 34.800,88.800 34.980,88.800 35.200 C 88.800 35.429,87.600 35.600,86.000 35.600 C 84.400 35.600,83.200 35.771,83.200 36.000 C 83.200 36.220,82.761 36.400,82.224 36.400 C 81.687 36.400,81.136 36.580,81.000 36.800 C 80.864 37.020,80.403 37.200,79.976 37.200 C 79.549 37.200,79.200 37.350,79.200 37.532 C 79.200 37.715,78.715 38.120,78.121 38.432 C 77.528 38.745,72.893 43.176,67.821 48.280 C 56.731 59.440,59.384 56.788,48.180 67.913 C 43.021 73.035,38.800 77.400,38.800 77.613 C 38.800 77.826,38.620 78.000,38.400 78.000 C 38.180 78.000,38.000 78.270,38.000 78.600 C 38.000 78.930,37.820 79.200,37.600 79.200 C 37.380 79.200,37.200 79.560,37.200 80.000 C 37.200 80.440,37.020 80.800,36.800 80.800 C 36.580 80.800,36.400 81.340,36.400 82.000 C 36.400 82.660,36.220 83.200,36.000 83.200 C 35.780 83.200,35.600 83.920,35.600 84.800 C 35.600 85.680,35.420 86.400,35.200 86.400 C 34.965 86.400,34.800 87.800,34.800 89.800 C 34.800 91.800,34.965 93.200,35.200 93.200 C 35.420 93.200,35.600 94.100,35.600 95.200 C 35.600 96.300,35.780 97.200,36.000 97.200 C 36.220 97.200,36.400 97.560,36.400 98.000 C 36.400 98.440,36.580 98.800,36.800 98.800 C 37.020 98.800,37.200 99.160,37.200 99.600 C 37.200 100.040,37.380 100.400,37.600 100.400 C 37.820 100.400,38.000 100.720,38.000 101.112 C 38.000 101.503,38.360 102.083,38.800 102.400 C 39.240 102.717,39.600 103.207,39.600 103.488 C 39.600 103.769,46.215 110.618,54.300 118.708 C 62.385 126.798,69.255 133.909,69.568 134.509 C 69.880 135.109,70.285 135.600,70.468 135.600 C 70.650 135.600,70.800 136.140,70.800 136.800 C 70.800 137.460,70.980 138.000,71.200 138.000 C 71.431 138.000,71.600 139.259,71.600 140.976 C 71.600 142.613,71.420 144.064,71.200 144.200 C 70.980 144.336,70.800 144.887,70.800 145.424 C 70.800 145.961,70.620 146.400,70.400 146.400 C 70.180 146.400,70.000 146.760,70.000 147.200 C 70.000 147.640,69.850 148.000,69.668 148.000 C 69.485 148.000,69.080 148.495,68.768 149.100 C 68.030 150.529,66.579 152.000,65.906 152.000 C 65.615 152.000,65.117 152.360,64.800 152.800 C 64.483 153.240,63.824 153.600,63.335 153.600 C 62.847 153.600,62.336 153.780,62.200 154.000 C 62.064 154.220,61.333 154.400,60.576 154.400 C 59.819 154.400,59.200 154.580,59.200 154.800 C 59.200 155.062,51.541 155.200,37.024 155.200 C 22.671 155.200,14.760 155.341,14.600 155.600 C 14.464 155.820,13.924 156.000,13.400 156.000 C 12.876 156.000,12.336 156.180,12.200 156.400 C 12.064 156.620,11.603 156.800,11.176 156.800 C 10.749 156.800,10.400 156.980,10.400 157.200 C 10.400 157.420,10.130 157.600,9.800 157.600 C 9.470 157.600,9.200 157.758,9.200 157.951 C 9.200 158.145,8.671 158.522,8.025 158.790 C 6.668 159.352,3.600 162.231,3.600 162.942 C 3.600 163.207,3.240 163.683,2.800 164.000 C 2.360 164.317,2.000 164.897,2.000 165.288 C 2.000 165.680,1.820 166.000,1.600 166.000 C 1.380 166.000,1.200 166.345,1.200 166.767 C 1.200 167.188,0.975 167.608,0.700 167.700 C -0.033 167.944,-0.033 232.056,0.700 232.300 C 0.975 232.392,1.200 232.812,1.200 233.233 C 1.200 233.655,1.380 234.000,1.600 234.000 C 1.820 234.000,2.000 234.320,2.000 234.712 C 2.000 235.103,2.360 235.683,2.800 236.000 C 3.240 236.317,3.600 236.793,3.600 237.058 C 3.600 237.769,6.668 240.648,8.025 241.210 C 8.671 241.478,9.200 241.855,9.200 242.049 C 9.200 242.242,9.470 242.400,9.800 242.400 C 10.130 242.400,10.400 242.580,10.400 242.800 C 10.400 243.020,10.749 243.200,11.176 243.200 C 11.603 243.200,12.064 243.380,12.200 243.600 C 12.336 243.820,12.876 244.000,13.400 244.000 C 13.924 244.000,14.464 244.180,14.600 244.400 C 14.760 244.659,22.671 244.800,37.024 244.800 C 51.541 244.800,59.200 244.938,59.200 245.200 C 59.200 245.420,59.819 245.600,60.576 245.600 C 61.333 245.600,62.064 245.780,62.200 246.000 C 62.336 246.220,62.847 246.400,63.335 246.400 C 63.824 246.400,64.483 246.760,64.800 247.200 C 65.117 247.640,65.615 248.000,65.906 248.000 C 66.579 248.000,68.030 249.471,68.768 250.900 C 69.080 251.505,69.485 252.000,69.668 252.000 C 69.850 252.000,70.000 252.360,70.000 252.800 C 70.000 253.240,70.180 253.600,70.400 253.600 C 70.620 253.600,70.800 254.039,70.800 254.576 C 70.800 255.113,70.980 255.664,71.200 255.800 C 71.420 255.936,71.600 257.387,71.600 259.024 C 71.600 260.741,71.431 262.000,71.200 262.000 C 70.980 262.000,70.800 262.540,70.800 263.200 C 70.800 263.860,70.650 264.400,70.468 264.400 C 70.285 264.400,69.880 264.891,69.568 265.491 C 69.255 266.091,62.385 273.202,54.300 281.292 C 46.215 289.382,39.600 296.231,39.600 296.512 C 39.600 296.793,39.240 297.283,38.800 297.600 C 38.360 297.917,38.000 298.497,38.000 298.888 C 38.000 299.280,37.820 299.600,37.600 299.600 C 37.380 299.600,37.200 299.960,37.200 300.400 C 37.200 300.840,37.020 301.200,36.800 301.200 C 36.580 301.200,36.400 301.560,36.400 302.000 C 36.400 302.440,36.220 302.800,36.000 302.800 C 35.780 302.800,35.600 303.700,35.600 304.800 C 35.600 305.900,35.420 306.800,35.200 306.800 C 34.965 306.800,34.800 308.200,34.800 310.200 C 34.800 312.200,34.965 313.600,35.200 313.600 C 35.420 313.600,35.600 314.320,35.600 315.200 C 35.600 316.080,35.780 316.800,36.000 316.800 C 36.220 316.800,36.400 317.340,36.400 318.000 C 36.400 318.660,36.580 319.200,36.800 319.200 C 37.020 319.200,37.200 319.560,37.200 320.000 C 37.200 320.440,37.380 320.800,37.600 320.800 C 37.820 320.800,38.000 321.070,38.000 321.400 C 38.000 321.730,38.180 322.000,38.400 322.000 C 38.620 322.000,38.800 322.174,38.800 322.387 C 38.800 322.600,43.021 326.965,48.180 332.087 C 53.339 337.209,57.740 341.580,57.962 341.800 C 58.183 342.020,62.563 346.430,67.694 351.600 C 72.826 356.770,77.514 361.255,78.113 361.568 C 78.711 361.880,79.200 362.285,79.200 362.468 C 79.200 362.650,79.549 362.800,79.976 362.800 C 80.403 362.800,80.864 362.980,81.000 363.200 C 81.136 363.420,81.687 363.600,82.224 363.600 C 82.761 363.600,83.200 363.780,83.200 364.000 C 83.200 364.229,84.400 364.400,86.000 364.400 C 87.600 364.400,88.800 364.571,88.800 364.800 C 88.800 365.020,89.329 365.200,89.976 365.200 C 90.623 365.200,91.264 365.020,91.400 364.800 C 91.536 364.580,92.717 364.400,94.024 364.400 C 95.341 364.400,96.400 364.222,96.400 364.000 C 96.400 363.780,96.940 363.600,97.600 363.600 C 98.260 363.600,98.800 363.420,98.800 363.200 C 98.800 362.980,99.160 362.800,99.600 362.800 C 100.040 362.800,100.400 362.620,100.400 362.400 C 100.400 362.180,100.720 362.000,101.112 362.000 C 101.503 362.000,102.083 361.640,102.400 361.200 C 102.717 360.760,103.215 360.400,103.506 360.400 C 103.797 360.400,110.645 353.785,118.725 345.700 C 126.805 337.615,133.907 330.745,134.508 330.432 C 135.108 330.120,135.600 329.715,135.600 329.532 C 135.600 329.350,136.140 329.200,136.800 329.200 C 137.460 329.200,138.000 329.020,138.000 328.800 C 138.000 328.569,139.259 328.400,140.976 328.400 C 142.613 328.400,144.064 328.580,144.200 328.800 C 144.336 329.020,144.887 329.200,145.424 329.200 C 145.961 329.200,146.400 329.380,146.400 329.600 C 146.400 329.820,146.760 330.000,147.200 330.000 C 147.640 330.000,148.000 330.150,148.000 330.332 C 148.000 330.515,148.495 330.920,149.100 331.232 C 150.529 331.970,152.000 333.421,152.000 334.094 C 152.000 334.385,152.360 334.883,152.800 335.200 C 153.240 335.517,153.600 336.176,153.600 336.665 C 153.600 337.153,153.780 337.664,154.000 337.800 C 154.220 337.936,154.400 338.667,154.400 339.424 C 154.400 340.181,154.580 340.800,154.800 340.800 C 155.062 340.800,155.200 348.459,155.200 362.976 C 155.200 377.329,155.341 385.240,155.600 385.400 C 155.820 385.536,156.000 386.076,156.000 386.600 C 156.000 387.124,156.180 387.664,156.400 387.800 C 156.620 387.936,156.800 388.397,156.800 388.824 C 156.800 389.251,156.980 389.600,157.200 389.600 C 157.420 389.600,157.600 389.870,157.600 390.200 C 157.600 390.530,157.758 390.800,157.951 390.800 C 158.145 390.800,158.510 391.295,158.763 391.900 C 159.332 393.261,161.348 395.600,161.953 395.600 C 162.199 395.600,162.400 395.780,162.400 396.000 C 162.400 396.220,162.630 396.400,162.912 396.400 C 163.193 396.400,163.683 396.760,164.000 397.200 C 164.317 397.640,164.897 398.000,165.288 398.000 C 165.680 398.000,166.000 398.180,166.000 398.400 C 166.000 398.620,166.345 398.800,166.767 398.800 C 167.188 398.800,167.608 399.025,167.700 399.300 C 167.831 399.694,174.649 399.800,200.000 399.800 C 225.351 399.800,232.169 399.694,232.300 399.300 C 232.392 399.025,232.812 398.800,233.233 398.800 C 233.655 398.800,234.000 398.620,234.000 398.400 C 234.000 398.180,234.320 398.000,234.712 398.000 C 235.103 398.000,235.683 397.640,236.000 397.200 C 236.317 396.760,236.762 396.400,236.988 396.400 C 237.765 396.399,241.002 392.855,241.415 391.552 C 241.546 391.139,241.822 390.800,242.027 390.800 C 242.232 390.800,242.400 390.530,242.400 390.200 C 242.400 389.870,242.580 389.600,242.800 389.600 C 243.020 389.600,243.200 389.251,243.200 388.824 C 243.200 388.397,243.380 387.936,243.600 387.800 C 243.820 387.664,244.000 387.023,244.000 386.376 C 244.000 385.729,244.180 385.200,244.400 385.200 C 244.662 385.200,244.800 377.533,244.800 363.000 C 244.800 348.467,244.938 340.800,245.200 340.800 C 245.420 340.800,245.600 340.181,245.600 339.424 C 245.600 338.667,245.780 337.936,246.000 337.800 C 246.220 337.664,246.400 337.153,246.400 336.665 C 246.400 336.176,246.760 335.517,247.200 335.200 C 247.640 334.883,248.000 334.385,248.000 334.094 C 248.000 333.421,249.471 331.970,250.900 331.232 C 251.505 330.920,252.000 330.515,252.000 330.332 C 252.000 330.150,252.360 330.000,252.800 330.000 C 253.240 330.000,253.600 329.820,253.600 329.600 C 253.600 329.380,254.039 329.200,254.576 329.200 C 255.113 329.200,255.664 329.020,255.800 328.800 C 255.936 328.580,257.387 328.400,259.024 328.400 C 260.741 328.400,262.000 328.569,262.000 328.800 C 262.000 329.020,262.540 329.200,263.200 329.200 C 263.860 329.200,264.400 329.350,264.400 329.532 C 264.400 329.715,264.891 330.120,265.491 330.432 C 266.091 330.745,273.202 337.615,281.292 345.700 C 289.382 353.785,296.231 360.400,296.512 360.400 C 296.793 360.400,297.283 360.760,297.600 361.200 C 297.917 361.640,298.497 362.000,298.888 362.000 C 299.280 362.000,299.600 362.180,299.600 362.400 C 299.600 362.620,299.960 362.800,300.400 362.800 C 300.840 362.800,301.200 362.980,301.200 363.200 C 301.200 363.420,301.740 363.600,302.400 363.600 C 303.060 363.600,303.600 363.780,303.600 364.000 C 303.600 364.229,304.800 364.400,306.400 364.400 C 308.000 364.400,309.200 364.571,309.200 364.800 C 309.200 365.020,309.650 365.200,310.200 365.200 C 310.750 365.200,311.200 365.020,311.200 364.800 C 311.200 364.575,312.325 364.400,313.776 364.400 C 315.193 364.400,316.464 364.220,316.600 364.000 C 316.736 363.780,317.287 363.600,317.824 363.600 C 318.361 363.600,318.800 363.420,318.800 363.200 C 318.800 362.980,319.115 362.796,319.500 362.791 C 319.885 362.786,320.650 362.430,321.200 362.000 C 321.750 361.570,322.335 361.214,322.499 361.209 C 322.664 361.204,327.037 356.925,332.218 351.700 C 343.445 340.376,340.376 343.445,351.700 332.218 C 356.925 327.037,361.200 322.619,361.200 322.399 C 361.200 322.180,361.380 322.000,361.600 322.000 C 361.820 322.000,362.000 321.730,362.000 321.400 C 362.000 321.070,362.180 320.800,362.400 320.800 C 362.620 320.800,362.800 320.440,362.800 320.000 C 362.800 319.560,362.980 319.200,363.200 319.200 C 363.420 319.200,363.600 318.660,363.600 318.000 C 363.600 317.340,363.780 316.800,364.000 316.800 C 364.220 316.800,364.400 316.080,364.400 315.200 C 364.400 314.320,364.580 313.600,364.800 313.600 C 365.035 313.600,365.200 312.200,365.200 310.200 C 365.200 308.200,365.035 306.800,364.800 306.800 C 364.580 306.800,364.400 305.900,364.400 304.800 C 364.400 303.700,364.220 302.800,364.000 302.800 C 363.780 302.800,363.600 302.440,363.600 302.000 C 363.600 301.560,363.420 301.200,363.200 301.200 C 362.980 301.200,362.800 300.840,362.800 300.400 C 362.800 299.960,362.620 299.600,362.400 299.600 C 362.180 299.600,362.000 299.280,362.000 298.888 C 362.000 298.497,361.640 297.917,361.200 297.600 C 360.760 297.283,360.400 296.793,360.400 296.512 C 360.400 296.231,353.785 289.382,345.700 281.292 C 337.615 273.202,330.745 266.091,330.432 265.491 C 330.120 264.891,329.715 264.400,329.532 264.400 C 329.350 264.400,329.200 263.860,329.200 263.200 C 329.200 262.540,329.020 262.000,328.800 262.000 C 328.569 262.000,328.400 260.741,328.400 259.024 C 328.400 257.387,328.580 255.936,328.800 255.800 C 329.020 255.664,329.200 255.113,329.200 254.576 C 329.200 254.039,329.380 253.600,329.600 253.600 C 329.820 253.600,330.000 253.240,330.000 252.800 C 330.000 252.360,330.150 252.000,330.332 252.000 C 330.515 252.000,330.920 251.505,331.232 250.900 C 331.970 249.471,333.421 248.000,334.094 248.000 C 334.385 248.000,334.883 247.640,335.200 247.200 C 335.517 246.760,336.176 246.400,336.665 246.400 C 337.153 246.400,337.664 246.220,337.800 246.000 C 337.936 245.780,338.667 245.600,339.424 245.600 C 340.181 245.600,340.800 245.420,340.800 245.200 C 340.800 244.938,348.459 244.800,362.976 244.800 C 377.329 244.800,385.240 244.659,385.400 244.400 C 385.536 244.180,386.076 244.000,386.600 244.000 C 387.124 244.000,387.664 243.820,387.800 243.600 C 387.936 243.380,388.397 243.200,388.824 243.200 C 389.251 243.200,389.600 243.020,389.600 242.800 C 389.600 242.580,389.870 242.400,390.200 242.400 C 390.530 242.400,390.800 242.242,390.800 242.049 C 390.800 241.855,391.329 241.478,391.975 241.210 C 393.332 240.648,396.400 237.769,396.400 237.058 C 396.400 236.793,396.760 236.317,397.200 236.000 C 397.640 235.683,398.000 235.103,398.000 234.712 C 398.000 234.320,398.180 234.000,398.400 234.000 C 398.620 234.000,398.800 233.655,398.800 233.233 C 398.800 232.812,399.025 232.392,399.300 232.300 C 400.033 232.056,400.033 167.944,399.300 167.700 C 399.025 167.608,398.800 167.188,398.800 166.767 C 398.800 166.345,398.620 166.000,398.400 166.000 C 398.180 166.000,398.000 165.680,398.000 165.288 C 398.000 164.897,397.640 164.317,397.200 164.000 C 396.760 163.683,396.400 163.207,396.400 162.942 C 396.400 162.231,393.332 159.352,391.975 158.790 C 391.329 158.522,390.800 158.145,390.800 157.951 C 390.800 157.758,390.530 157.600,390.200 157.600 C 389.870 157.600,389.600 157.420,389.600 157.200 C 389.600 156.980,389.251 156.800,388.824 156.800 C 388.397 156.800,387.936 156.620,387.800 156.400 C 387.664 156.180,387.124 156.000,386.600 156.000 C 386.076 156.000,385.536 155.820,385.400 155.600 C 385.240 155.341,377.329 155.200,362.976 155.200 C 348.459 155.200,340.800 155.062,340.800 154.800 C 340.800 154.580,340.181 154.400,339.424 154.400 C 338.667 154.400,337.936 154.220,337.800 154.000 C 337.664 153.780,337.153 153.600,336.665 153.600 C 336.176 153.600,335.517 153.240,335.200 152.800 C 334.883 152.360,334.385 152.000,334.094 152.000 C 333.407 152.000,331.600 150.193,331.600 149.506 C 331.600 149.215,331.240 148.717,330.800 148.400 C 330.360 148.083,330.000 147.503,330.000 147.112 C 330.000 146.720,329.820 146.400,329.600 146.400 C 329.380 146.400,329.200 145.961,329.200 145.424 C 329.200 144.887,329.020 144.336,328.800 144.200 C 328.580 144.064,328.400 142.613,328.400 140.976 C 328.400 139.259,328.569 138.000,328.800 138.000 C 329.020 138.000,329.200 137.460,329.200 136.800 C 329.200 136.140,329.350 135.600,329.532 135.600 C 329.715 135.600,330.120 135.108,330.432 134.508 C 330.745 133.907,337.615 126.805,345.700 118.725 C 353.785 110.645,360.400 103.797,360.400 103.506 C 360.400 103.215,360.760 102.717,361.200 102.400 C 361.640 102.083,362.000 101.503,362.000 101.112 C 362.000 100.720,362.180 100.400,362.400 100.400 C 362.620 100.400,362.800 100.040,362.800 99.600 C 362.800 99.160,362.980 98.800,363.200 98.800 C 363.420 98.800,363.600 98.440,363.600 98.000 C 363.600 97.560,363.780 97.200,364.000 97.200 C 364.220 97.200,364.400 96.300,364.400 95.200 C 364.400 94.100,364.580 93.200,364.800 93.200 C 365.035 93.200,365.200 91.800,365.200 89.800 C 365.200 87.800,365.035 86.400,364.800 86.400 C 364.580 86.400,364.400 85.680,364.400 84.800 C 364.400 83.920,364.220 83.200,364.000 83.200 C 363.780 83.200,363.600 82.660,363.600 82.000 C 363.600 81.340,363.420 80.800,363.200 80.800 C 362.980 80.800,362.800 80.440,362.800 80.000 C 362.800 79.560,362.620 79.200,362.400 79.200 C 362.180 79.200,362.000 78.930,362.000 78.600 C 362.000 78.270,361.820 78.000,361.600 78.000 C 361.380 78.000,361.200 77.820,361.200 77.601 C 361.200 77.381,356.925 72.963,351.700 67.782 C 346.475 62.602,342.020 58.183,341.800 57.962 C 341.580 57.740,337.209 53.339,332.087 48.180 C 326.965 43.021,322.600 38.800,322.387 38.800 C 322.174 38.800,322.000 38.620,322.000 38.400 C 322.000 38.180,321.730 38.000,321.400 38.000 C 321.070 38.000,320.800 37.820,320.800 37.600 C 320.800 37.380,320.451 37.200,320.024 37.200 C 319.597 37.200,319.136 37.020,319.000 36.800 C 318.864 36.580,318.313 36.400,317.776 36.400 C 317.239 36.400,316.800 36.220,316.800 36.000 C 316.800 35.771,315.600 35.600,314.000 35.600 C 312.400 35.600,311.200 35.429,311.200 35.200 C 311.200 34.980,310.570 34.800,309.800 34.800 C 309.030 34.800,308.400 34.980,308.400 35.200 C 308.400 35.422,307.333 35.600,306.000 35.600 C 304.667 35.600,303.600 35.778,303.600 36.000 C 303.600 36.220,303.060 36.400,302.400 36.400 C 301.740 36.400,301.200 36.580,301.200 36.800 C 301.200 37.020,300.840 37.200,300.400 37.200 C 299.960 37.200,299.600 37.380,299.600 37.600 C 299.600 37.820,299.280 38.000,298.888 38.000 C 298.497 38.000,297.917 38.360,297.600 38.800 C 297.283 39.240,296.793 39.600,296.512 39.600 C 296.231 39.600,289.382 46.215,281.292 54.300 C 273.202 62.385,266.091 69.255,265.491 69.568 C 264.891 69.880,264.400 70.285,264.400 70.468 C 264.400 70.650,263.860 70.800,263.200 70.800 C 262.540 70.800,262.000 70.980,262.000 71.200 C 262.000 71.431,260.741 71.600,259.024 71.600 C 257.387 71.600,255.936 71.420,255.800 71.200 C 255.664 70.980,255.113 70.800,254.576 70.800 C 254.039 70.800,253.600 70.620,253.600 70.400 C 253.600 70.180,253.240 70.000,252.800 70.000 C 252.360 70.000,252.000 69.850,252.000 69.668 C 252.000 69.485,251.505 69.080,250.900 68.768 C 249.471 68.030,248.000 66.579,248.000 65.906 C 248.000 65.615,247.640 65.117,247.200 64.800 C 246.760 64.483,246.400 63.824,246.400 63.335 C 246.400 62.847,246.220 62.336,246.000 62.200 C 245.780 62.064,245.600 61.333,245.600 60.576 C 245.600 59.819,245.420 59.200,245.200 59.200 C 244.938 59.200,244.800 51.541,244.800 37.024 C 244.800 22.671,244.659 14.760,244.400 14.600 C 244.180 14.464,244.000 13.924,244.000 13.400 C 244.000 12.876,243.820 12.336,243.600 12.200 C 243.380 12.064,243.200 11.603,243.200 11.176 C 243.200 10.749,243.020 10.400,242.800 10.400 C 242.580 10.400,242.400 10.130,242.400 9.800 C 242.400 9.470,242.242 9.200,242.049 9.200 C 241.855 9.200,241.478 8.671,241.210 8.025 C 240.648 6.668,237.769 3.600,237.058 3.600 C 236.793 3.600,236.317 3.240,236.000 2.800 C 235.683 2.360,235.103 2.000,234.712 2.000 C 234.320 2.000,234.000 1.820,234.000 1.600 C 234.000 1.380,233.655 1.200,233.233 1.200 C 232.812 1.200,232.392 0.975,232.300 0.700 C 232.139 0.217,172.446 -0.177,168.900 0.282 M224.000 15.600 C 224.000 15.820,224.421 16.000,224.936 16.000 C 225.493 16.000,226.379 16.558,227.129 17.381 L 228.386 18.763 228.547 39.081 C 228.636 50.339,228.898 60.738,229.134 62.400 C 229.834 67.320,230.069 68.400,230.444 68.400 C 230.640 68.400,230.800 68.850,230.800 69.400 C 230.800 69.950,230.980 70.400,231.200 70.400 C 231.420 70.400,231.600 70.683,231.600 71.028 C 231.600 71.373,232.140 72.441,232.800 73.400 C 233.460 74.359,234.000 75.249,234.000 75.378 C 234.000 75.856,240.808 82.400,241.306 82.400 C 241.591 82.400,242.083 82.760,242.400 83.200 C 242.717 83.640,243.207 84.000,243.488 84.000 C 243.770 84.000,244.000 84.180,244.000 84.400 C 244.000 84.620,244.360 84.800,244.800 84.800 C 245.240 84.800,245.600 84.980,245.600 85.200 C 245.600 85.420,245.949 85.600,246.376 85.600 C 246.803 85.600,247.264 85.780,247.400 86.000 C 247.536 86.220,248.076 86.400,248.600 86.400 C 249.124 86.400,249.664 86.580,249.800 86.800 C 249.936 87.020,250.656 87.200,251.400 87.200 C 252.144 87.200,252.864 87.380,253.000 87.600 C 253.146 87.837,255.596 88.000,259.000 88.000 C 262.404 88.000,264.854 87.837,265.000 87.600 C 265.136 87.380,265.779 87.200,266.429 87.200 C 267.079 87.200,267.923 87.041,268.305 86.847 C 268.978 86.504,269.550 86.259,272.300 85.136 C 273.015 84.844,273.600 84.469,273.600 84.302 C 273.600 84.136,273.870 84.000,274.200 84.000 C 274.530 84.000,274.800 83.820,274.800 83.600 C 274.800 83.380,275.030 83.200,275.312 83.200 C 275.593 83.200,276.083 82.840,276.400 82.400 C 276.717 81.960,277.205 81.600,277.484 81.600 C 277.763 81.600,284.682 74.940,292.859 66.800 C 301.037 58.660,307.969 52.000,308.264 52.000 C 308.559 52.000,308.800 51.820,308.800 51.600 C 308.800 51.380,309.340 51.200,310.000 51.200 C 310.660 51.200,311.200 51.380,311.200 51.600 C 311.200 51.820,311.472 52.000,311.805 52.000 C 312.397 52.000,315.882 55.230,322.509 61.923 C 324.319 63.750,328.004 67.440,330.699 70.123 C 345.863 85.221,348.000 87.453,348.000 88.194 C 348.000 88.527,348.180 88.800,348.400 88.800 C 348.620 88.800,348.800 89.340,348.800 90.000 C 348.800 90.660,348.620 91.200,348.400 91.200 C 348.180 91.200,348.000 91.442,348.000 91.737 C 348.000 92.033,341.340 98.967,333.200 107.146 C 325.060 115.325,318.400 122.244,318.400 122.520 C 318.400 122.797,318.040 123.283,317.600 123.600 C 317.160 123.917,316.800 124.373,316.800 124.613 C 316.800 124.853,316.485 125.398,316.100 125.825 C 315.424 126.573,315.077 127.233,314.007 129.800 C 313.732 130.460,313.348 131.313,313.153 131.695 C 312.959 132.077,312.800 132.921,312.800 133.571 C 312.800 134.221,312.620 134.864,312.400 135.000 C 312.163 135.146,312.000 137.596,312.000 141.000 C 312.000 144.404,312.163 146.854,312.400 147.000 C 312.620 147.136,312.800 147.856,312.800 148.600 C 312.800 149.344,312.980 150.064,313.200 150.200 C 313.420 150.336,313.600 150.876,313.600 151.400 C 313.600 151.924,313.780 152.464,314.000 152.600 C 314.220 152.736,314.400 153.197,314.400 153.624 C 314.400 154.051,314.580 154.400,314.800 154.400 C 315.020 154.400,315.200 154.760,315.200 155.200 C 315.200 155.640,315.380 156.000,315.600 156.000 C 315.820 156.000,316.000 156.270,316.000 156.600 C 316.000 156.930,316.180 157.200,316.400 157.200 C 316.620 157.200,316.800 157.470,316.800 157.800 C 316.800 158.130,316.980 158.400,317.200 158.400 C 317.420 158.400,317.600 158.583,317.600 158.806 C 317.600 159.288,324.241 166.000,324.719 166.000 C 324.901 166.000,325.407 166.315,325.845 166.700 C 326.970 167.689,328.286 168.400,328.995 168.400 C 329.328 168.400,329.600 168.580,329.600 168.800 C 329.600 169.020,330.050 169.200,330.600 169.200 C 331.150 169.200,331.600 169.360,331.600 169.556 C 331.600 170.002,333.741 170.403,337.500 170.663 C 339.095 170.773,340.400 171.029,340.400 171.232 C 340.400 171.451,348.637 171.600,360.811 171.600 L 381.221 171.600 382.611 172.864 C 383.440 173.619,384.000 174.506,384.000 175.064 C 384.000 175.579,384.180 176.000,384.400 176.000 C 384.662 176.000,384.800 184.267,384.800 200.000 C 384.800 215.733,384.662 224.000,384.400 224.000 C 384.180 224.000,384.000 224.421,384.000 224.936 C 384.000 225.494,383.440 226.381,382.611 227.136 L 381.221 228.400 361.091 228.400 C 349.345 228.400,340.802 228.554,340.580 228.769 C 340.371 228.972,338.940 229.228,337.400 229.339 C 333.703 229.605,331.600 230.006,331.600 230.444 C 331.600 230.640,331.150 230.800,330.600 230.800 C 330.050 230.800,329.600 230.980,329.600 231.200 C 329.600 231.420,329.328 231.600,328.995 231.600 C 328.286 231.600,326.970 232.311,325.845 233.300 C 325.407 233.685,324.901 234.000,324.719 234.000 C 324.174 234.000,317.600 240.747,317.600 241.306 C 317.600 241.591,317.240 242.083,316.800 242.400 C 316.360 242.717,316.000 243.207,316.000 243.488 C 316.000 243.770,315.820 244.000,315.600 244.000 C 315.380 244.000,315.200 244.360,315.200 244.800 C 315.200 245.240,315.020 245.600,314.800 245.600 C 314.580 245.600,314.400 245.949,314.400 246.376 C 314.400 246.803,314.220 247.264,314.000 247.400 C 313.780 247.536,313.600 248.076,313.600 248.600 C 313.600 249.124,313.420 249.664,313.200 249.800 C 312.980 249.936,312.800 250.656,312.800 251.400 C 312.800 252.144,312.620 252.864,312.400 253.000 C 312.163 253.146,312.000 255.596,312.000 259.000 C 312.000 262.404,312.163 264.854,312.400 265.000 C 312.620 265.136,312.800 265.779,312.800 266.429 C 312.800 267.079,312.959 267.923,313.153 268.305 C 313.496 268.978,313.741 269.550,314.864 272.300 C 315.156 273.015,315.531 273.600,315.698 273.600 C 315.864 273.600,316.000 273.870,316.000 274.200 C 316.000 274.530,316.180 274.800,316.400 274.800 C 316.620 274.800,316.800 275.030,316.800 275.312 C 316.800 275.593,317.160 276.083,317.600 276.400 C 318.040 276.717,318.400 277.203,318.400 277.480 C 318.400 277.756,325.060 284.675,333.200 292.854 C 341.340 301.033,348.000 307.967,348.000 308.263 C 348.000 308.558,348.180 308.800,348.400 308.800 C 348.620 308.800,348.800 309.340,348.800 310.000 C 348.800 310.660,348.620 311.200,348.400 311.200 C 348.180 311.200,348.000 311.473,348.000 311.806 C 348.000 312.419,345.271 315.372,338.480 322.109 C 333.727 326.825,326.825 333.727,322.109 338.480 C 315.372 345.271,312.419 348.000,311.806 348.000 C 311.473 348.000,311.200 348.180,311.200 348.400 C 311.200 348.620,310.660 348.800,310.000 348.800 C 309.340 348.800,308.800 348.620,308.800 348.400 C 308.800 348.180,308.558 348.000,308.263 348.000 C 307.967 348.000,301.033 341.340,292.854 333.200 C 284.675 325.060,277.756 318.400,277.480 318.400 C 277.203 318.400,276.717 318.040,276.400 317.600 C 276.083 317.160,275.627 316.800,275.387 316.800 C 275.147 316.800,274.602 316.485,274.175 316.100 C 273.427 315.425,272.430 314.900,270.100 313.953 C 269.495 313.708,268.687 313.348,268.305 313.153 C 267.923 312.959,267.079 312.800,266.429 312.800 C 265.779 312.800,265.136 312.620,265.000 312.400 C 264.670 311.866,253.330 311.866,253.000 312.400 C 252.864 312.620,252.144 312.800,251.400 312.800 C 250.656 312.800,249.936 312.980,249.800 313.200 C 249.664 313.420,249.124 313.600,248.600 313.600 C 248.076 313.600,247.536 313.780,247.400 314.000 C 247.264 314.220,246.803 314.400,246.376 314.400 C 245.949 314.400,245.600 314.580,245.600 314.800 C 245.600 315.020,245.240 315.200,244.800 315.200 C 244.360 315.200,244.000 315.380,244.000 315.600 C 244.000 315.820,243.770 316.000,243.488 316.000 C 243.207 316.000,242.717 316.360,242.400 316.800 C 242.083 317.240,241.591 317.600,241.306 317.600 C 240.747 317.600,234.000 324.174,234.000 324.719 C 234.000 324.901,233.685 325.407,233.300 325.845 C 232.311 326.970,231.600 328.286,231.600 328.995 C 231.600 329.328,231.420 329.600,231.200 329.600 C 230.980 329.600,230.800 330.050,230.800 330.600 C 230.800 331.150,230.640 331.600,230.444 331.600 C 230.069 331.600,229.834 332.680,229.134 337.600 C 228.898 339.262,228.636 349.661,228.547 360.919 L 228.386 381.237 227.129 382.619 C 226.379 383.442,225.493 384.000,224.936 384.000 C 224.421 384.000,224.000 384.180,224.000 384.400 C 224.000 384.662,215.733 384.800,200.000 384.800 C 184.267 384.800,176.000 384.662,176.000 384.400 C 176.000 384.180,175.579 384.000,175.064 384.000 C 174.506 384.000,173.619 383.440,172.864 382.611 L 171.600 381.221 171.600 361.091 C 171.600 349.345,171.446 340.802,171.231 340.580 C 171.028 340.371,170.772 338.940,170.661 337.400 C 170.395 333.703,169.994 331.600,169.556 331.600 C 169.360 331.600,169.200 331.328,169.200 330.995 C 169.200 330.662,169.041 330.077,168.847 329.695 C 168.652 329.313,168.247 328.460,167.947 327.800 C 167.646 327.140,167.085 326.251,166.700 325.825 C 166.315 325.398,166.000 324.901,166.000 324.719 C 166.000 324.241,159.288 317.600,158.806 317.600 C 158.583 317.600,158.400 317.420,158.400 317.200 C 158.400 316.980,158.130 316.800,157.800 316.800 C 157.470 316.800,157.200 316.620,157.200 316.400 C 157.200 316.180,156.930 316.000,156.600 316.000 C 156.270 316.000,156.000 315.820,156.000 315.600 C 156.000 315.380,155.640 315.200,155.200 315.200 C 154.760 315.200,154.400 315.020,154.400 314.800 C 154.400 314.580,154.051 314.400,153.624 314.400 C 153.197 314.400,152.736 314.220,152.600 314.000 C 152.464 313.780,151.913 313.600,151.376 313.600 C 150.839 313.600,150.400 313.420,150.400 313.200 C 150.400 312.980,149.691 312.800,148.824 312.800 C 147.957 312.800,147.136 312.620,147.000 312.400 C 146.670 311.866,135.330 311.866,135.000 312.400 C 134.864 312.620,134.221 312.800,133.571 312.800 C 132.921 312.800,132.077 312.959,131.695 313.153 C 131.313 313.348,130.505 313.708,129.900 313.953 C 127.570 314.900,126.573 315.425,125.825 316.100 C 125.398 316.485,124.853 316.800,124.613 316.800 C 124.373 316.800,123.917 317.160,123.600 317.600 C 123.283 318.040,122.795 318.400,122.516 318.400 C 122.237 318.400,115.318 325.060,107.141 333.200 C 98.963 341.340,92.031 348.000,91.736 348.000 C 91.441 348.000,91.200 348.180,91.200 348.400 C 91.200 348.620,90.660 348.800,90.000 348.800 C 89.340 348.800,88.800 348.620,88.800 348.400 C 88.800 348.180,88.527 348.000,88.194 348.000 C 87.453 348.000,85.221 345.863,70.123 330.699 C 67.440 328.004,63.750 324.319,61.923 322.509 C 55.230 315.882,52.000 312.397,52.000 311.805 C 52.000 311.472,51.820 311.200,51.600 311.200 C 51.380 311.200,51.200 310.660,51.200 310.000 C 51.200 309.340,51.380 308.800,51.600 308.800 C 51.820 308.800,52.000 308.556,52.000 308.258 C 52.000 307.960,58.480 301.214,66.400 293.266 C 74.320 285.319,80.800 278.659,80.800 278.467 C 80.800 278.276,81.340 277.554,82.000 276.863 C 82.660 276.172,83.200 275.426,83.200 275.204 C 83.200 274.982,83.380 274.800,83.600 274.800 C 83.820 274.800,84.000 274.530,84.000 274.200 C 84.000 273.870,84.136 273.600,84.302 273.600 C 84.469 273.600,84.844 273.015,85.136 272.300 C 86.259 269.550,86.504 268.978,86.847 268.305 C 87.041 267.923,87.200 267.079,87.200 266.429 C 87.200 265.779,87.380 265.136,87.600 265.000 C 88.134 264.670,88.134 253.330,87.600 253.000 C 87.380 252.864,87.200 252.144,87.200 251.400 C 87.200 250.656,87.020 249.936,86.800 249.800 C 86.580 249.664,86.400 249.124,86.400 248.600 C 86.400 248.076,86.220 247.536,86.000 247.400 C 85.780 247.264,85.600 246.803,85.600 246.376 C 85.600 245.949,85.420 245.600,85.200 245.600 C 84.980 245.600,84.800 245.240,84.800 244.800 C 84.800 244.360,84.620 244.000,84.400 244.000 C 84.180 244.000,84.000 243.770,84.000 243.488 C 84.000 243.207,83.640 242.717,83.200 242.400 C 82.760 242.083,82.400 241.591,82.400 241.306 C 82.400 240.747,75.826 234.000,75.281 234.000 C 75.099 234.000,74.593 233.685,74.155 233.300 C 73.030 232.311,71.714 231.600,71.005 231.600 C 70.672 231.600,70.400 231.420,70.400 231.200 C 70.400 230.980,69.950 230.800,69.400 230.800 C 68.850 230.800,68.400 230.640,68.400 230.444 C 68.400 230.006,66.297 229.605,62.600 229.339 C 61.060 229.228,59.629 228.972,59.420 228.769 C 59.198 228.554,50.655 228.400,38.909 228.400 L 18.779 228.400 17.389 227.136 C 16.560 226.381,16.000 225.494,16.000 224.936 C 16.000 224.421,15.820 224.000,15.600 224.000 C 15.338 224.000,15.200 215.733,15.200 200.000 C 15.200 184.267,15.338 176.000,15.600 176.000 C 15.820 176.000,16.000 175.579,16.000 175.064 C 16.000 174.506,16.560 173.619,17.389 172.864 L 18.779 171.600 38.966 171.600 C 51.992 171.600,59.240 171.458,59.400 171.200 C 59.536 170.980,60.886 170.800,62.400 170.800 C 63.914 170.800,65.264 170.620,65.400 170.400 C 65.536 170.180,66.267 170.000,67.024 170.000 C 67.781 170.000,68.400 169.820,68.400 169.600 C 68.400 169.380,68.672 169.200,69.005 169.200 C 69.338 169.200,69.923 169.032,70.305 168.826 C 70.687 168.621,71.585 168.217,72.300 167.929 C 73.015 167.640,73.600 167.269,73.600 167.102 C 73.600 166.936,73.870 166.800,74.200 166.800 C 74.530 166.800,74.800 166.620,74.800 166.400 C 74.800 166.180,74.983 166.000,75.206 166.000 C 75.735 166.000,82.400 159.335,82.400 158.806 C 82.400 158.583,82.580 158.400,82.800 158.400 C 83.020 158.400,83.200 158.130,83.200 157.800 C 83.200 157.470,83.346 157.200,83.525 157.200 C 83.704 157.200,84.098 156.570,84.400 155.800 C 84.702 155.030,85.096 154.400,85.275 154.400 C 85.454 154.400,85.600 154.051,85.600 153.624 C 85.600 153.197,85.780 152.736,86.000 152.600 C 86.220 152.464,86.400 151.924,86.400 151.400 C 86.400 150.876,86.580 150.336,86.800 150.200 C 87.020 150.064,87.200 149.344,87.200 148.600 C 87.200 147.856,87.380 147.136,87.600 147.000 C 88.134 146.670,88.134 135.330,87.600 135.000 C 87.380 134.864,87.200 134.221,87.200 133.571 C 87.200 132.921,87.041 132.077,86.847 131.695 C 86.652 131.313,86.292 130.505,86.047 129.900 C 85.100 127.570,84.575 126.573,83.900 125.825 C 83.515 125.398,83.200 124.853,83.200 124.613 C 83.200 124.373,82.840 123.917,82.400 123.600 C 81.960 123.283,81.600 122.795,81.600 122.516 C 81.600 122.237,74.940 115.318,66.800 107.141 C 58.660 98.963,52.000 92.031,52.000 91.736 C 52.000 91.441,51.820 91.200,51.600 91.200 C 51.380 91.200,51.200 90.660,51.200 90.000 C 51.200 89.340,51.380 88.800,51.600 88.800 C 51.820 88.800,52.000 88.528,52.000 88.195 C 52.000 87.626,54.741 84.656,61.502 77.900 C 65.234 74.170,74.170 65.234,77.900 61.502 C 84.656 54.741,87.626 52.000,88.195 52.000 C 88.528 52.000,88.800 51.820,88.800 51.600 C 88.800 51.380,89.340 51.200,90.000 51.200 C 90.660 51.200,91.200 51.380,91.200 51.600 C 91.200 51.820,91.444 52.000,91.743 52.000 C 92.041 52.000,98.790 58.480,106.739 66.400 C 114.689 74.320,121.348 80.800,121.537 80.800 C 121.726 80.800,122.446 81.340,123.137 82.000 C 123.828 82.660,124.540 83.200,124.721 83.200 C 124.901 83.200,125.407 83.515,125.845 83.900 C 127.060 84.969,128.304 85.600,129.195 85.600 C 129.638 85.600,130.000 85.780,130.000 86.000 C 130.000 86.220,130.349 86.400,130.776 86.400 C 131.203 86.400,131.664 86.580,131.800 86.800 C 131.936 87.020,132.656 87.200,133.400 87.200 C 134.144 87.200,134.864 87.380,135.000 87.600 C 135.330 88.134,146.670 88.134,147.000 87.600 C 147.136 87.380,147.856 87.200,148.600 87.200 C 149.344 87.200,150.064 87.020,150.200 86.800 C 150.336 86.580,150.876 86.400,151.400 86.400 C 151.924 86.400,152.464 86.220,152.600 86.000 C 152.736 85.780,153.197 85.600,153.624 85.600 C 154.051 85.600,154.400 85.454,154.400 85.275 C 154.400 85.096,155.030 84.702,155.800 84.400 C 156.570 84.098,157.200 83.704,157.200 83.525 C 157.200 83.346,157.470 83.200,157.800 83.200 C 158.130 83.200,158.400 83.020,158.400 82.800 C 158.400 82.580,158.583 82.400,158.806 82.400 C 159.335 82.400,166.000 75.735,166.000 75.206 C 166.000 74.983,166.180 74.800,166.400 74.800 C 166.620 74.800,166.800 74.530,166.800 74.200 C 166.800 73.870,166.936 73.600,167.102 73.600 C 167.269 73.600,167.640 73.015,167.929 72.300 C 168.217 71.585,168.621 70.687,168.826 70.305 C 169.032 69.923,169.200 69.338,169.200 69.005 C 169.200 68.672,169.380 68.400,169.600 68.400 C 169.820 68.400,170.000 67.781,170.000 67.024 C 170.000 66.267,170.180 65.536,170.400 65.400 C 170.620 65.264,170.800 63.914,170.800 62.400 C 170.800 60.886,170.980 59.536,171.200 59.400 C 171.458 59.240,171.600 51.992,171.600 38.966 L 171.600 18.779 172.864 17.389 C 173.619 16.560,174.506 16.000,175.064 16.000 C 175.579 16.000,176.000 15.820,176.000 15.600 C 176.000 15.338,184.267 15.200,200.000 15.200 C 215.733 15.200,224.000 15.338,224.000 15.600 M194.200 132.800 C 194.064 133.020,192.613 133.200,190.976 133.200 C 189.259 133.200,188.000 133.369,188.000 133.600 C 188.000 133.820,187.100 134.000,186.000 134.000 C 184.900 134.000,184.000 134.180,184.000 134.400 C 184.000 134.620,183.280 134.800,182.400 134.800 C 181.520 134.800,180.800 134.980,180.800 135.200 C 180.800 135.420,180.260 135.600,179.600 135.600 C 178.940 135.600,178.400 135.780,178.400 136.000 C 178.400 136.220,178.038 136.400,177.595 136.400 C 176.817 136.400,176.431 136.542,174.505 137.538 C 174.013 137.792,173.338 138.000,173.005 138.000 C 172.672 138.000,172.400 138.180,172.400 138.400 C 172.400 138.620,172.040 138.800,171.600 138.800 C 171.160 138.800,170.800 138.980,170.800 139.200 C 170.800 139.420,170.440 139.600,170.000 139.600 C 169.560 139.600,169.200 139.780,169.200 140.000 C 169.200 140.220,168.840 140.400,168.400 140.400 C 167.960 140.400,167.600 140.580,167.600 140.800 C 167.600 141.020,167.240 141.200,166.800 141.200 C 166.360 141.200,166.000 141.380,166.000 141.600 C 166.000 141.820,165.773 142.000,165.495 142.000 C 164.920 142.000,160.670 144.762,160.467 145.268 C 160.393 145.451,160.151 145.600,159.927 145.600 C 159.704 145.600,159.017 146.140,158.400 146.800 C 157.783 147.460,157.088 148.000,156.853 148.000 C 156.298 148.000,148.000 156.298,148.000 156.853 C 148.000 157.088,147.492 157.756,146.871 158.340 C 145.522 159.607,142.000 164.781,142.000 165.496 C 142.000 165.773,141.820 166.000,141.600 166.000 C 141.380 166.000,141.200 166.360,141.200 166.800 C 141.200 167.240,141.020 167.600,140.800 167.600 C 140.580 167.600,140.400 167.960,140.400 168.400 C 140.400 168.840,140.220 169.200,140.000 169.200 C 139.780 169.200,139.600 169.560,139.600 170.000 C 139.600 170.440,139.420 170.800,139.200 170.800 C 138.980 170.800,138.800 171.160,138.800 171.600 C 138.800 172.040,138.620 172.400,138.400 172.400 C 138.180 172.400,138.000 172.672,138.000 173.005 C 138.000 173.593,137.833 174.018,136.862 175.895 C 136.608 176.387,136.400 177.152,136.400 177.595 C 136.400 178.038,136.220 178.400,136.000 178.400 C 135.780 178.400,135.600 178.940,135.600 179.600 C 135.600 180.260,135.420 180.800,135.200 180.800 C 134.980 180.800,134.800 181.520,134.800 182.400 C 134.800 183.280,134.620 184.000,134.400 184.000 C 134.180 184.000,134.000 184.900,134.000 186.000 C 134.000 187.100,133.820 188.000,133.600 188.000 C 133.369 188.000,133.200 189.259,133.200 190.976 C 133.200 192.613,133.020 194.064,132.800 194.200 C 132.564 194.346,132.400 196.730,132.400 200.000 C 132.400 203.270,132.564 205.654,132.800 205.800 C 133.020 205.936,133.200 207.387,133.200 209.024 C 133.200 210.741,133.369 212.000,133.600 212.000 C 133.820 212.000,134.000 212.900,134.000 214.000 C 134.000 215.100,134.180 216.000,134.400 216.000 C 134.620 216.000,134.800 216.720,134.800 217.600 C 134.800 218.480,134.980 219.200,135.200 219.200 C 135.420 219.200,135.600 219.740,135.600 220.400 C 135.600 221.060,135.780 221.600,136.000 221.600 C 136.220 221.600,136.400 221.962,136.400 222.405 C 136.400 222.848,136.580 223.568,136.800 224.005 C 137.020 224.442,137.380 225.158,137.600 225.595 C 137.820 226.032,138.000 226.662,138.000 226.995 C 138.000 227.328,138.180 227.600,138.400 227.600 C 138.620 227.600,138.800 227.960,138.800 228.400 C 138.800 228.840,138.980 229.200,139.200 229.200 C 139.420 229.200,139.600 229.560,139.600 230.000 C 139.600 230.440,139.780 230.800,140.000 230.800 C 140.220 230.800,140.400 231.160,140.400 231.600 C 140.400 232.040,140.580 232.400,140.800 232.400 C 141.020 232.400,141.200 232.760,141.200 233.200 C 141.200 233.640,141.380 234.000,141.600 234.000 C 141.820 234.000,142.000 234.227,142.000 234.505 C 142.000 235.080,144.762 239.330,145.268 239.533 C 145.451 239.607,145.600 239.849,145.600 240.073 C 145.600 240.296,146.140 240.983,146.800 241.600 C 147.460 242.217,148.000 242.912,148.000 243.147 C 148.000 243.702,156.298 252.000,156.853 252.000 C 157.088 252.000,157.783 252.540,158.400 253.200 C 159.017 253.860,159.704 254.400,159.927 254.400 C 160.151 254.400,160.393 254.545,160.467 254.723 C 160.621 255.097,164.218 257.600,164.601 257.600 C 164.742 257.600,165.127 257.870,165.457 258.200 C 165.787 258.530,166.404 258.800,166.829 258.800 C 167.253 258.800,167.600 258.980,167.600 259.200 C 167.600 259.420,167.960 259.600,168.400 259.600 C 168.840 259.600,169.200 259.780,169.200 260.000 C 169.200 260.220,169.560 260.400,170.000 260.400 C 170.440 260.400,170.800 260.580,170.800 260.800 C 170.800 261.020,171.160 261.200,171.600 261.200 C 172.040 261.200,172.400 261.380,172.400 261.600 C 172.400 261.820,172.672 262.000,173.005 262.000 C 173.593 262.000,174.018 262.167,175.895 263.138 C 176.387 263.392,177.152 263.600,177.595 263.600 C 178.038 263.600,178.400 263.780,178.400 264.000 C 178.400 264.220,178.940 264.400,179.600 264.400 C 180.260 264.400,180.800 264.580,180.800 264.800 C 180.800 265.020,181.520 265.200,182.400 265.200 C 183.280 265.200,184.000 265.380,184.000 265.600 C 184.000 265.820,184.900 266.000,186.000 266.000 C 187.100 266.000,188.000 266.180,188.000 266.400 C 188.000 266.631,189.259 266.800,190.976 266.800 C 192.613 266.800,194.064 266.980,194.200 267.200 C 194.346 267.436,196.730 267.600,200.000 267.600 C 203.270 267.600,205.654 267.436,205.800 267.200 C 205.936 266.980,207.387 266.800,209.024 266.800 C 210.741 266.800,212.000 266.631,212.000 266.400 C 212.000 266.180,212.900 266.000,214.000 266.000 C 215.100 266.000,216.000 265.820,216.000 265.600 C 216.000 265.380,216.720 265.200,217.600 265.200 C 218.480 265.200,219.200 265.020,219.200 264.800 C 219.200 264.580,219.740 264.400,220.400 264.400 C 221.060 264.400,221.600 264.220,221.600 264.000 C 221.600 263.780,222.039 263.600,222.576 263.600 C 223.113 263.600,223.664 263.420,223.800 263.200 C 223.936 262.980,224.487 262.800,225.024 262.800 C 225.561 262.800,226.000 262.620,226.000 262.400 C 226.000 262.180,226.360 262.000,226.800 262.000 C 227.240 262.000,227.600 261.820,227.600 261.600 C 227.600 261.380,227.960 261.200,228.400 261.200 C 228.840 261.200,229.200 261.020,229.200 260.800 C 229.200 260.580,229.560 260.400,230.000 260.400 C 230.440 260.400,230.800 260.220,230.800 260.000 C 230.800 259.780,231.160 259.600,231.600 259.600 C 232.040 259.600,232.400 259.420,232.400 259.200 C 232.400 258.980,232.717 258.800,233.104 258.800 C 233.977 258.800,240.222 254.662,241.660 253.130 C 242.244 252.508,242.912 252.000,243.147 252.000 C 243.702 252.000,252.000 243.702,252.000 243.147 C 252.000 242.912,252.540 242.217,253.200 241.600 C 253.860 240.983,254.400 240.296,254.400 240.073 C 254.400 239.849,254.545 239.607,254.723 239.533 C 255.097 239.379,257.600 235.782,257.600 235.399 C 257.600 235.258,257.870 234.873,258.200 234.543 C 258.530 234.213,258.800 233.596,258.800 233.171 C 258.800 232.747,258.980 232.400,259.200 232.400 C 259.420 232.400,259.600 232.040,259.600 231.600 C 259.600 231.160,259.780 230.800,260.000 230.800 C 260.220 230.800,260.400 230.440,260.400 230.000 C 260.400 229.560,260.580 229.200,260.800 229.200 C 261.020 229.200,261.200 228.840,261.200 228.400 C 261.200 227.960,261.380 227.600,261.600 227.600 C 261.820 227.600,262.000 227.328,262.000 226.995 C 262.000 226.662,262.180 226.032,262.400 225.595 C 262.620 225.158,262.980 224.442,263.200 224.005 C 263.420 223.568,263.600 222.848,263.600 222.405 C 263.600 221.962,263.780 221.600,264.000 221.600 C 264.220 221.600,264.400 221.060,264.400 220.400 C 264.400 219.740,264.580 219.200,264.800 219.200 C 265.020 219.200,265.200 218.480,265.200 217.600 C 265.200 216.720,265.380 216.000,265.600 216.000 C 265.820 216.000,266.000 215.100,266.000 214.000 C 266.000 212.900,266.180 212.000,266.400 212.000 C 266.631 212.000,266.800 210.741,266.800 209.024 C 266.800 207.387,266.980 205.936,267.200 205.800 C 267.436 205.654,267.600 203.270,267.600 200.000 C 267.600 196.730,267.436 194.346,267.200 194.200 C 266.980 194.064,266.800 192.613,266.800 190.976 C 266.800 189.259,266.631 188.000,266.400 188.000 C 266.180 188.000,266.000 187.100,266.000 186.000 C 266.000 184.900,265.820 184.000,265.600 184.000 C 265.380 184.000,265.200 183.280,265.200 182.400 C 265.200 181.520,265.020 180.800,264.800 180.800 C 264.580 180.800,264.400 180.260,264.400 179.600 C 264.400 178.940,264.220 178.400,264.000 178.400 C 263.780 178.400,263.600 177.961,263.600 177.424 C 263.600 176.887,263.420 176.336,263.200 176.200 C 262.980 176.064,262.800 175.513,262.800 174.976 C 262.800 174.439,262.620 174.000,262.400 174.000 C 262.180 174.000,262.000 173.640,262.000 173.200 C 262.000 172.760,261.820 172.400,261.600 172.400 C 261.380 172.400,261.200 172.040,261.200 171.600 C 261.200 171.160,261.020 170.800,260.800 170.800 C 260.580 170.800,260.400 170.440,260.400 170.000 C 260.400 169.560,260.220 169.200,260.000 169.200 C 259.780 169.200,259.600 168.840,259.600 168.400 C 259.600 167.960,259.420 167.600,259.200 167.600 C 258.980 167.600,258.800 167.253,258.800 166.829 C 258.800 166.404,258.530 165.787,258.200 165.457 C 257.870 165.127,257.600 164.742,257.600 164.601 C 257.600 164.218,255.097 160.621,254.723 160.467 C 254.545 160.393,254.400 160.151,254.400 159.927 C 254.400 159.704,253.860 159.017,253.200 158.400 C 252.540 157.783,252.000 157.072,252.000 156.819 C 252.000 156.253,243.699 148.000,243.130 148.000 C 242.905 148.000,242.244 147.492,241.660 146.871 C 240.393 145.522,235.219 142.000,234.504 142.000 C 234.227 142.000,234.000 141.820,234.000 141.600 C 234.000 141.380,233.640 141.200,233.200 141.200 C 232.760 141.200,232.400 141.020,232.400 140.800 C 232.400 140.580,232.040 140.400,231.600 140.400 C 231.160 140.400,230.800 140.220,230.800 140.000 C 230.800 139.780,230.440 139.600,230.000 139.600 C 229.560 139.600,229.200 139.420,229.200 139.200 C 229.200 138.980,228.840 138.800,228.400 138.800 C 227.960 138.800,227.600 138.620,227.600 138.400 C 227.600 138.180,227.240 138.000,226.800 138.000 C 226.360 138.000,226.000 137.820,226.000 137.600 C 226.000 137.380,225.561 137.200,225.024 137.200 C 224.487 137.200,223.936 137.020,223.800 136.800 C 223.664 136.580,223.113 136.400,222.576 136.400 C 222.039 136.400,221.600 136.220,221.600 136.000 C 221.600 135.780,221.060 135.600,220.400 135.600 C 219.740 135.600,219.200 135.420,219.200 135.200 C 219.200 134.980,218.480 134.800,217.600 134.800 C 216.720 134.800,216.000 134.620,216.000 134.400 C 216.000 134.180,215.100 134.000,214.000 134.000 C 212.900 134.000,212.000 133.820,212.000 133.600 C 212.000 133.369,210.741 133.200,209.024 133.200 C 207.387 133.200,205.936 133.020,205.800 132.800 C 205.654 132.564,203.270 132.400,200.000 132.400 C 196.730 132.400,194.346 132.564,194.200 132.800 M205.200 149.200 C 205.200 149.422,206.267 149.600,207.600 149.600 C 208.933 149.600,210.000 149.778,210.000 150.000 C 210.000 150.220,210.619 150.400,211.376 150.400 C 212.133 150.400,212.864 150.580,213.000 150.800 C 213.136 151.020,213.689 151.200,214.229 151.200 C 214.769 151.200,215.568 151.380,216.005 151.600 C 216.442 151.820,217.158 152.180,217.595 152.400 C 218.032 152.620,218.752 152.800,219.195 152.800 C 219.638 152.800,220.000 152.980,220.000 153.200 C 220.000 153.420,220.360 153.600,220.800 153.600 C 221.240 153.600,221.600 153.780,221.600 154.000 C 221.600 154.220,221.960 154.400,222.400 154.400 C 222.840 154.400,223.200 154.580,223.200 154.800 C 223.200 155.020,223.560 155.200,224.000 155.200 C 224.440 155.200,224.800 155.380,224.800 155.600 C 224.800 155.820,225.004 156.000,225.252 156.000 C 225.501 156.000,226.581 156.630,227.653 157.400 C 228.725 158.170,229.780 158.800,229.997 158.800 C 230.618 158.800,241.200 169.540,241.200 170.170 C 241.200 170.480,241.335 170.793,241.500 170.867 C 241.931 171.058,244.000 174.306,244.000 174.791 C 244.000 175.016,244.180 175.200,244.400 175.200 C 244.620 175.200,244.800 175.560,244.800 176.000 C 244.800 176.440,244.980 176.800,245.200 176.800 C 245.420 176.800,245.600 177.160,245.600 177.600 C 245.600 178.040,245.780 178.400,246.000 178.400 C 246.220 178.400,246.400 178.760,246.400 179.200 C 246.400 179.640,246.580 180.000,246.800 180.000 C 247.020 180.000,247.200 180.362,247.200 180.805 C 247.200 181.248,247.380 181.968,247.600 182.405 C 247.820 182.842,248.180 183.558,248.400 183.995 C 248.620 184.432,248.800 185.231,248.800 185.771 C 248.800 186.311,248.980 186.864,249.200 187.000 C 249.420 187.136,249.600 187.867,249.600 188.624 C 249.600 189.381,249.780 190.000,250.000 190.000 C 250.222 190.000,250.400 191.067,250.400 192.400 C 250.400 193.733,250.578 194.800,250.800 194.800 C 251.046 194.800,251.200 196.800,251.200 200.000 C 251.200 203.200,251.046 205.200,250.800 205.200 C 250.578 205.200,250.400 206.267,250.400 207.600 C 250.400 208.933,250.222 210.000,250.000 210.000 C 249.780 210.000,249.600 210.619,249.600 211.376 C 249.600 212.133,249.420 212.864,249.200 213.000 C 248.980 213.136,248.800 213.689,248.800 214.229 C 248.800 214.769,248.620 215.568,248.400 216.005 C 248.180 216.442,247.820 217.158,247.600 217.595 C 247.380 218.032,247.200 218.752,247.200 219.195 C 247.200 219.638,247.020 220.000,246.800 220.000 C 246.580 220.000,246.400 220.360,246.400 220.800 C 246.400 221.240,246.220 221.600,246.000 221.600 C 245.780 221.600,245.600 221.960,245.600 222.400 C 245.600 222.840,245.420 223.200,245.200 223.200 C 244.980 223.200,244.800 223.560,244.800 224.000 C 244.800 224.440,244.620 224.800,244.400 224.800 C 244.180 224.800,244.000 224.984,244.000 225.209 C 244.000 225.694,241.931 228.942,241.500 229.133 C 241.335 229.207,241.200 229.522,241.200 229.833 C 241.200 230.145,241.020 230.400,240.800 230.400 C 240.580 230.400,240.400 230.588,240.400 230.818 C 240.400 231.344,230.487 241.200,229.957 241.200 C 229.742 241.200,229.349 241.383,229.083 241.606 C 228.084 242.445,225.550 244.000,225.182 244.000 C 224.972 244.000,224.800 244.180,224.800 244.400 C 224.800 244.620,224.440 244.800,224.000 244.800 C 223.560 244.800,223.200 244.980,223.200 245.200 C 223.200 245.420,222.840 245.600,222.400 245.600 C 221.960 245.600,221.600 245.780,221.600 246.000 C 221.600 246.220,221.240 246.400,220.800 246.400 C 220.360 246.400,220.000 246.580,220.000 246.800 C 220.000 247.020,219.638 247.200,219.195 247.200 C 218.752 247.200,217.987 247.408,217.495 247.662 C 215.541 248.672,215.175 248.800,214.229 248.800 C 213.689 248.800,213.136 248.980,213.000 249.200 C 212.864 249.420,212.133 249.600,211.376 249.600 C 210.619 249.600,210.000 249.780,210.000 250.000 C 210.000 250.222,208.933 250.400,207.600 250.400 C 206.267 250.400,205.200 250.578,205.200 250.800 C 205.200 251.046,203.200 251.200,200.000 251.200 C 196.800 251.200,194.800 251.046,194.800 250.800 C 194.800 250.578,193.733 250.400,192.400 250.400 C 191.067 250.400,190.000 250.222,190.000 250.000 C 190.000 249.780,189.381 249.600,188.624 249.600 C 187.867 249.600,187.136 249.420,187.000 249.200 C 186.864 248.980,186.311 248.800,185.771 248.800 C 185.231 248.800,184.432 248.620,183.995 248.400 C 183.558 248.180,182.842 247.820,182.405 247.600 C 181.968 247.380,181.248 247.200,180.805 247.200 C 180.362 247.200,180.000 247.020,180.000 246.800 C 180.000 246.580,179.640 246.400,179.200 246.400 C 178.760 246.400,178.400 246.220,178.400 246.000 C 178.400 245.780,178.040 245.600,177.600 245.600 C 177.160 245.600,176.800 245.420,176.800 245.200 C 176.800 244.980,176.440 244.800,176.000 244.800 C 175.560 244.800,175.200 244.620,175.200 244.400 C 175.200 244.180,175.028 244.000,174.818 244.000 C 174.450 244.000,171.916 242.445,170.917 241.606 C 170.651 241.383,170.246 241.200,170.017 241.200 C 169.788 241.200,169.600 241.020,169.600 240.800 C 169.600 240.580,169.408 240.400,169.173 240.400 C 168.644 240.400,158.800 230.508,158.800 229.976 C 158.800 229.765,158.170 228.695,157.400 227.600 C 156.630 226.505,156.000 225.426,156.000 225.204 C 156.000 224.982,155.820 224.800,155.600 224.800 C 155.380 224.800,155.200 224.440,155.200 224.000 C 155.200 223.560,155.020 223.200,154.800 223.200 C 154.580 223.200,154.400 222.840,154.400 222.400 C 154.400 221.960,154.220 221.600,154.000 221.600 C 153.780 221.600,153.600 221.240,153.600 220.800 C 153.600 220.360,153.420 220.000,153.200 220.000 C 152.980 220.000,152.800 219.638,152.800 219.195 C 152.800 218.752,152.592 217.987,152.338 217.495 C 151.328 215.541,151.200 215.175,151.200 214.229 C 151.200 213.689,151.020 213.136,150.800 213.000 C 150.580 212.864,150.400 212.133,150.400 211.376 C 150.400 210.619,150.220 210.000,150.000 210.000 C 149.778 210.000,149.600 208.933,149.600 207.600 C 149.600 206.267,149.422 205.200,149.200 205.200 C 148.954 205.200,148.800 203.200,148.800 200.000 C 148.800 196.800,148.954 194.800,149.200 194.800 C 149.422 194.800,149.600 193.733,149.600 192.400 C 149.600 191.067,149.778 190.000,150.000 190.000 C 150.220 190.000,150.400 189.381,150.400 188.624 C 150.400 187.867,150.580 187.136,150.800 187.000 C 151.020 186.864,151.200 186.311,151.200 185.771 C 151.200 185.231,151.380 184.432,151.600 183.995 C 151.820 183.558,152.180 182.842,152.400 182.405 C 152.620 181.968,152.800 181.248,152.800 180.805 C 152.800 180.362,152.980 180.000,153.200 180.000 C 153.420 180.000,153.600 179.640,153.600 179.200 C 153.600 178.760,153.780 178.400,154.000 178.400 C 154.220 178.400,154.400 178.040,154.400 177.600 C 154.400 177.160,154.580 176.800,154.800 176.800 C 155.020 176.800,155.200 176.440,155.200 176.000 C 155.200 175.560,155.380 175.200,155.600 175.200 C 155.820 175.200,156.000 175.018,156.000 174.796 C 156.000 174.574,156.630 173.495,157.400 172.400 C 158.170 171.305,158.800 170.228,158.800 170.008 C 158.800 169.485,169.485 158.800,170.008 158.800 C 170.228 158.800,171.305 158.170,172.400 157.400 C 173.495 156.630,174.574 156.000,174.796 156.000 C 175.018 156.000,175.200 155.820,175.200 155.600 C 175.200 155.380,175.560 155.200,176.000 155.200 C 176.440 155.200,176.800 155.020,176.800 154.800 C 176.800 154.580,177.160 154.400,177.600 154.400 C 178.040 154.400,178.400 154.220,178.400 154.000 C 178.400 153.780,178.760 153.600,179.200 153.600 C 179.640 153.600,180.000 153.420,180.000 153.200 C 180.000 152.980,180.362 152.800,180.805 152.800 C 181.248 152.800,181.968 152.620,182.405 152.400 C 182.842 152.180,183.558 151.820,183.995 151.600 C 184.432 151.380,185.231 151.200,185.771 151.200 C 186.311 151.200,186.864 151.020,187.000 150.800 C 187.136 150.580,187.867 150.400,188.624 150.400 C 189.381 150.400,190.000 150.220,190.000 150.000 C 190.000 149.778,191.067 149.600,192.400 149.600 C 193.733 149.600,194.800 149.422,194.800 149.200 C 194.800 148.954,196.800 148.800,200.000 148.800 C 203.200 148.800,205.200 148.954,205.200 149.200 " stroke="none" fill="#0c9cfc" fill-rule="evenodd"></path><path id="path1" d="" stroke="none" fill="#109cfc" fill-rule="evenodd"></path><path id="path2" d="" stroke="none" fill="#109cfc" fill-rule="evenodd"></path><path id="path3" d="" stroke="none" fill="#109cfc" fill-rule="evenodd"></path><path id="path4" d="" stroke="none" fill="#109cfc" fill-rule="evenodd"></path></g></svg>