<?xml version="1.0" standalone="no"?>
<!DOCTYPE svg PUBLIC "-//W3C//DTD SVG 20010904//EN"
 "http://www.w3.org/TR/2001/REC-SVG-20010904/DTD/svg10.dtd">
<svg version="1.0" xmlns="http://www.w3.org/2000/svg"
 width="512.000000pt" height="512.000000pt" viewBox="0 0 512.000000 512.000000"
 preserveAspectRatio="xMidYMid meet">
<metadata>
Created by potrace 1.16, written by Peter Selinger 2001-2019
</metadata>
<g transform="translate(0.000000,512.000000) scale(0.100000,-0.100000)"
fill="#000000" stroke="none">
<path d="M233 5066 c-143 -47 -233 -174 -233 -331 0 -98 27 -168 88 -234 152
-162 416 -140 540 44 18 27 36 62 39 77 l6 28 507 0 507 0 -5 -49 c-4 -43 -1
-53 21 -75 34 -34 63 -33 169 3 114 39 124 45 138 86 l12 36 91 -3 92 -3 3
-127 3 -128 349 0 350 0 0 110 0 110 49 0 c33 0 56 6 74 20 20 16 40 20 105
20 79 0 79 0 74 -25 -6 -34 14 -80 41 -93 60 -31 181 -72 210 -72 45 0 75 24
83 66 9 48 -7 79 -53 103 l-38 20 496 1 496 0 6 -28 c3 -15 21 -50 39 -77 124
-184 388 -206 540 -44 61 66 88 136 88 234 0 138 -70 254 -188 312 -50 25 -68
28 -152 28 -84 0 -102 -3 -152 -28 -67 -33 -138 -107 -164 -172 l-19 -45 -767
0 -768 0 0 125 0 125 -350 0 -350 0 0 -125 0 -125 -767 0 -768 0 -24 55 c-28
64 -101 137 -169 167 -59 27 -188 34 -249 14z m170 -180 c42 -18 82 -62 96
-108 34 -106 -77 -228 -186 -204 -80 18 -133 81 -133 159 0 121 114 200 223
153z m2327 -151 l0 -165 -170 0 -170 0 0 165 0 165 170 0 170 0 0 -165z m2138
138 c97 -72 97 -214 0 -273 -96 -58 -203 -21 -244 86 -28 72 3 146 81 196 39
25 124 20 163 -9z"/>
<path d="M1343 4480 c-101 -62 -127 -92 -119 -139 7 -44 31 -69 73 -77 29 -5
46 1 121 46 48 29 95 60 104 68 24 20 33 74 17 103 -35 66 -88 66 -196 -1z"/>
<path d="M3695 4445 c-30 -29 -33 -83 -7 -114 9 -11 53 -46 97 -76 102 -71
159 -75 190 -14 34 65 15 97 -104 179 -88 59 -136 66 -176 25z"/>
<path d="M2495 4285 c-19 -18 -25 -35 -25 -70 0 -44 -32 -94 -756 -1202 -416
-636 -758 -1163 -761 -1170 -4 -10 41 -13 235 -13 137 0 264 -5 294 -11 129
-27 269 -131 330 -245 56 -104 58 -126 58 -641 l0 -473 85 0 85 0 0 -210 0
-210 520 0 520 0 0 210 0 210 85 0 85 0 0 473 c0 515 2 537 58 641 36 68 135
165 202 198 103 51 153 58 418 58 197 0 243 3 239 13 -3 7 -345 534 -761 1170
-724 1108 -756 1158 -756 1202 0 35 -6 52 -25 70 -34 35 -96 35 -130 0z m-25
-1199 l0 -745 -54 -24 c-145 -67 -224 -215 -196 -369 21 -115 86 -203 187
-253 52 -26 68 -29 153 -29 85 0 101 3 153 29 101 50 166 138 187 253 28 154
-51 302 -196 369 l-54 24 0 746 0 746 94 -144 c52 -79 320 -488 595 -909 l500
-765 -117 -6 c-93 -5 -135 -13 -203 -36 -199 -68 -344 -213 -417 -415 -25 -68
-27 -86 -30 -280 l-4 -208 -508 0 -508 0 -4 208 c-3 194 -5 212 -30 280 -73
202 -218 347 -417 415 -68 23 -110 31 -203 36 l-117 6 592 907 c326 499 593
907 595 907 1 1 2 -334 2 -743z m153 -930 c89 -37 125 -146 78 -233 -16 -31
-72 -72 -109 -79 -79 -16 -169 41 -191 121 -35 127 100 243 222 191z m447
-1391 l0 -125 -510 0 -510 0 0 125 0 125 510 0 510 0 0 -125z m-170 -425 l0
-120 -340 0 -340 0 0 120 0 120 340 0 340 0 0 -120z"/>
<path d="M1005 4220 c-11 -4 -53 -42 -92 -83 -67 -68 -73 -78 -73 -116 0 -55
34 -91 86 -91 33 0 46 9 123 84 80 80 86 87 86 126 0 69 -64 108 -130 80z"/>
<path d="M4093 4126 c-21 -19 -28 -33 -28 -64 0 -35 9 -48 75 -122 41 -45 85
-86 99 -92 51 -19 106 12 117 67 8 44 -10 75 -93 163 -61 64 -72 72 -105 72
-24 0 -46 -8 -65 -24z"/>
<path d="M671 3833 c-7 -3 -40 -46 -72 -96 -68 -106 -78 -156 -36 -195 26 -25
93 -30 119 -9 8 6 39 52 68 100 63 104 69 147 25 184 -25 22 -71 29 -104 16z"/>
<path d="M4401 3716 c-34 -36 -29 -79 20 -171 58 -111 73 -125 126 -125 48 0
78 22 89 66 5 20 -3 47 -33 108 -59 119 -85 146 -137 146 -32 0 -48 -6 -65
-24z"/>
<path d="M434 3372 c-25 -16 -36 -36 -62 -115 -18 -53 -32 -109 -32 -126 0
-44 37 -83 82 -84 61 -2 80 20 116 130 38 117 39 143 10 177 -31 35 -75 42
-114 18z"/>
<path d="M4615 3255 c-32 -31 -32 -73 -1 -187 30 -106 30 -107 72 -124 29 -12
39 -12 69 0 50 21 62 53 47 126 -20 95 -50 174 -73 192 -31 26 -85 23 -114 -7z"/>
<path d="M315 2878 c-35 -20 -43 -41 -50 -118 -3 -41 -8 -92 -11 -112 l-6 -38
-124 0 -124 0 0 -345 0 -345 345 0 345 0 0 345 0 345 -131 0 c-119 0 -130 1
-126 18 3 9 8 59 12 110 l7 92 -30 30 c-32 32 -71 38 -107 18z m195 -613 l0
-165 -165 0 -165 0 0 165 0 165 165 0 165 0 0 -165z"/>
<path d="M4730 2767 c-33 -17 -50 -53 -50 -109 l0 -48 -125 0 -125 0 0 -345 0
-345 345 0 345 0 0 345 0 345 -124 0 c-139 0 -136 -1 -136 75 0 36 -5 48 -31
69 -34 29 -61 32 -99 13z m210 -502 l0 -165 -165 0 -165 0 0 165 0 165 165 0
165 0 0 -165z"/>
</g>
</svg>
